<?xml version="1.0" encoding="UTF-8" standalone="no"?>
<!-- Created with Inkscape (http://www.inkscape.org/) -->

<svg
   xmlns:dc="http://purl.org/dc/elements/1.1/"
   xmlns:cc="http://creativecommons.org/ns#"
   xmlns:rdf="http://www.w3.org/1999/02/22-rdf-syntax-ns#"
   xmlns:svg="http://www.w3.org/2000/svg"
   xmlns="http://www.w3.org/2000/svg"
   xmlns:sodipodi="http://sodipodi.sourceforge.net/DTD/sodipodi-0.dtd"
   xmlns:inkscape="http://www.inkscape.org/namespaces/inkscape"
   id="svg4155"
   version="1.1"
   inkscape:version="0.91 r13725"
   xml:space="preserve"
   width="1038.6125"
   height="240"
   viewBox="0 0 1038.6125 240"
   sodipodi:docname="AM2Studio.svg"><metadata
     id="metadata4161"><rdf:RDF><cc:Work
         rdf:about=""><dc:format>image/svg+xml</dc:format><dc:type
           rdf:resource="http://purl.org/dc/dcmitype/StillImage" /><dc:title></dc:title></cc:Work></rdf:RDF></metadata><defs
     id="defs4159"><clipPath
       clipPathUnits="userSpaceOnUse"
       id="clipPath4169"><path
         d="m 0,192 830.89,0 0,-192 L 0,0 0,192 Z"
         id="path4171"
         inkscape:connector-curvature="0" /></clipPath></defs><sodipodi:namedview
     pagecolor="#ffffff"
     bordercolor="#666666"
     borderopacity="1"
     objecttolerance="10"
     gridtolerance="10"
     guidetolerance="10"
     inkscape:pageopacity="0"
     inkscape:pageshadow="2"
     inkscape:window-width="1920"
     inkscape:window-height="1176"
     id="namedview4157"
     showgrid="false"
     inkscape:zoom="1.4346062"
     inkscape:cx="519.30627"
     inkscape:cy="120"
     inkscape:window-x="0"
     inkscape:window-y="24"
     inkscape:window-maximized="1"
     inkscape:current-layer="g4163" /><g
     id="g4163"
     inkscape:groupmode="layer"
     inkscape:label="AM2Studio logo final"
     transform="matrix(1.25,0,0,-1.25,0,240)"><g
       id="g4165"><g
         id="g4167"
         clip-path="url(#clipPath4169)"><g
           id="g4173"
           transform="translate(66.5728,148.123)"><path
             d="M 0,0 C -0.088,0.515 -0.195,0.927 -0.326,1.228 -0.455,1.53 -0.737,1.683 -1.169,1.683 -1.604,1.683 -1.885,1.53 -2.014,1.228 -2.144,0.927 -2.254,0.515 -2.338,0 l -4.808,-30.149 11.953,0 L 0,0 Z m 13.772,-71.206 c -0.695,0 -1.28,0.259 -1.754,0.78 -0.477,0.52 -0.802,1.124 -0.974,1.818 l -2.34,14.551 -19.748,0 -2.338,-14.551 c -0.175,-0.694 -0.5,-1.298 -0.975,-1.818 -0.477,-0.521 -1.061,-0.78 -1.754,-0.78 l -27.024,0 c -0.867,0 -1.452,0.259 -1.754,0.78 -0.304,0.52 -0.37,1.124 -0.195,1.818 l 15.46,78.475 c 0.605,3.292 1.69,6.02 3.249,8.185 1.559,2.165 3.551,3.876 5.976,5.134 2.424,1.254 5.24,2.143 8.445,2.661 3.204,0.521 6.799,0.78 10.785,0.78 3.983,0 7.578,-0.259 10.783,-0.78 3.204,-0.518 5.997,-1.407 8.38,-2.661 2.381,-1.258 4.352,-2.969 5.912,-5.134 1.559,-2.165 2.684,-4.893 3.378,-8.185 l 15.461,-78.475 c 0.173,-0.694 0.108,-1.298 -0.196,-1.818 -0.303,-0.521 -0.888,-0.78 -1.754,-0.78 l -27.023,0 z"
             style="fill:#58595b;fill-opacity:1;fill-rule:nonzero;stroke:none"
             id="path4175"
             inkscape:connector-curvature="0" /></g><g
           id="g4177"
           transform="translate(219.166,77.1118)"><path
             d="m 0,0 c -0.477,-0.131 -0.931,-0.195 -1.364,-0.195 l -25.595,0 c -0.519,0 -0.953,0.259 -1.299,0.78 -0.347,0.52 -0.519,1.124 -0.519,1.818 l 0,40.667 c 0,0.521 -0.023,0.844 -0.066,0.975 -0.045,0.13 -0.281,0.194 -0.714,0.194 -0.346,0 -0.779,-0.389 -1.299,-1.169 l -9.615,-14.292 c -0.694,-0.953 -1.279,-1.602 -1.754,-1.949 -0.476,-0.347 -1.061,-0.518 -1.754,-0.518 l -7.536,0 c -0.693,0 -1.278,0.171 -1.754,0.518 -0.476,0.347 -1.061,0.996 -1.753,1.949 l -9.615,14.292 c -0.519,0.78 -0.954,1.169 -1.298,1.169 -0.436,0 -0.673,-0.064 -0.716,-0.194 -0.044,-0.131 -0.064,-0.454 -0.064,-0.975 l 0,-40.667 c 0,-0.694 -0.175,-1.298 -0.52,-1.818 -0.348,-0.521 -0.78,-0.78 -1.299,-0.78 l -25.595,0 c -0.435,0 -0.889,0.064 -1.364,0.195 -0.478,0.131 -0.716,0.54 -0.716,1.234 l 0,90.557 c 0,1.213 0.455,2.275 1.364,3.185 0.91,0.908 1.97,1.364 3.184,1.364 l 17.02,0 c 1.992,0 3.528,-0.347 4.612,-1.041 1.083,-0.694 2.057,-1.775 2.923,-3.246 l 17.8,-28.714 c 0.52,-0.955 1.04,-1.43 1.559,-1.43 0.52,0 1.04,0.475 1.559,1.43 l 17.801,28.714 c 0.865,1.471 1.839,2.552 2.923,3.246 1.081,0.694 2.618,1.041 4.611,1.041 l 17.021,0 c 1.212,0 2.273,-0.456 3.184,-1.364 0.909,-0.91 1.363,-1.972 1.363,-3.185 l 0,-90.557 C 0.715,0.54 0.476,0.131 0,0"
             style="fill:#58595b;fill-opacity:1;fill-rule:nonzero;stroke:none"
             id="path4179"
             inkscape:connector-curvature="0" /></g><g
           id="g4181"
           transform="translate(331.8398,173.6699)"><path
             d="m 0,0 0,-50.153 c 0,-9.265 -3.548,-18.805 -10.645,-28.626 -11.041,-11.983 -23.023,-17.976 -35.959,-17.976 l -50.152,0 -0.473,0.475 0,50.149 c 0,9.307 3.549,18.846 10.647,28.625 11.037,11.985 23.024,17.979 35.955,17.979 l 50.152,0 L 0,0 Z"
             style="fill:#37b34a;fill-opacity:1;fill-rule:nonzero;stroke:none"
             id="path4183"
             inkscape:connector-curvature="0" /></g><g
           id="g4185"
           transform="translate(309.1606,134.1934)"><path
             d="m 0,0 0,-1.231 c 0,-8.53 -6.973,-15.586 -15.585,-15.586 l -18.21,0 c -0.822,0 -1.724,-0.081 -2.543,-0.409 l 0,-5.988 33.138,0 0,-13.043 -46.181,0 0,20.753 c 0,8.039 8.694,11.73 15.586,11.73 l 18.21,0 c 1.394,0 2.625,1.148 2.625,2.543 0,1.806 -0.247,3.855 -2.625,3.855 l -30.515,0 0,13.042 30.515,0 C -6.973,15.666 0,8.612 0,0"
             style="fill:#ffffff;fill-opacity:1;fill-rule:nonzero;stroke:none"
             id="path4187"
             inkscape:connector-curvature="0" /></g><g
           id="g4189"
           transform="translate(343.4702,92.6479)"><path
             d="M 0,0 8.985,12.39 C 15.11,5.719 25.048,-0.271 37.709,-0.271 c 13.068,0 18.104,6.398 18.104,12.525 0,19.058 -52.818,7.216 -52.818,40.568 0,15.11 13.068,26.681 33.08,26.681 14.022,0 25.593,-4.63 33.896,-12.797 L 60.987,54.863 c -7.216,7.216 -16.881,10.48 -26.409,10.48 -9.258,0 -15.247,-4.627 -15.247,-11.298 0,-17.016 52.819,-6.532 52.819,-40.294 C 72.15,-1.36 61.395,-14.426 37.028,-14.426 20.284,-14.426 8.167,-8.437 0,0"
             style="fill:#58595b;fill-opacity:1;fill-rule:nonzero;stroke:none"
             id="path4191"
             inkscape:connector-curvature="0" /></g><g
           id="g4193"
           transform="translate(447.0732,79.8525)"><path
             d="m 0,0 0,76.78 -27.499,0 0,14.021 70.925,0 0,-14.021 -27.498,0 L 15.928,0 0,0 Z"
             style="fill:#58595b;fill-opacity:1;fill-rule:nonzero;stroke:none"
             id="path4195"
             inkscape:connector-curvature="0" /></g><g
           id="g4197"
           transform="translate(500.5811,115.7915)"><path
             d="m 0,0 0,54.862 16.198,0 0,-54.453 c 0,-14.431 8.033,-23.824 23.143,-23.824 15.109,0 23.142,9.393 23.142,23.824 l 0,54.453 16.199,0 0,-54.862 c 0,-22.459 -12.934,-37.57 -39.341,-37.57 C 13.065,-37.57 0,-22.459 0,0"
             style="fill:#58595b;fill-opacity:1;fill-rule:nonzero;stroke:none"
             id="path4199"
             inkscape:connector-curvature="0" /></g><g
           id="g4201"
           transform="translate(660.1309,125.3213)"><path
             d="m 0,0 c 0,17.424 -10.889,31.311 -31.037,31.311 l -17.971,0 0,-62.759 17.833,0 C -11.436,-31.448 0,-17.289 0,0 m -64.936,-45.469 0,90.801 33.761,0 c 28.452,0 47.512,-18.786 47.512,-45.332 0,-26.816 -19.06,-45.469 -47.374,-45.469 l -33.899,0 z"
             style="fill:#58595b;fill-opacity:1;fill-rule:nonzero;stroke:none"
             id="path4203"
             inkscape:connector-curvature="0" /></g><path
           d="m 688.455,170.653 15.927,0 0,-90.801 -15.927,0 0,90.801 z"
           style="fill:#58595b;fill-opacity:1;fill-rule:nonzero;stroke:none"
           id="path4205"
           inkscape:connector-curvature="0" /><g
           id="g4207"
           transform="translate(792.8701,125.186)"><path
             d="m 0,0 c 0,18.784 -11.845,32.805 -30.087,32.805 -18.375,0 -30.082,-14.021 -30.082,-32.805 0,-18.651 11.707,-32.81 30.082,-32.81 C -11.845,-32.81 0,-18.651 0,0 m -76.505,0 c 0,27.089 19.192,46.965 46.418,46.965 27.092,0 46.423,-19.876 46.423,-46.965 0,-27.09 -19.331,-46.964 -46.423,-46.964 -27.226,0 -46.418,19.874 -46.418,46.964"
             style="fill:#58595b;fill-opacity:1;fill-rule:nonzero;stroke:none"
             id="path4209"
             inkscape:connector-curvature="0" /></g><g
           id="g4211"
           transform="translate(49.3604,17.8252)"><path
             d="M 0,0 -6.218,23.765 -12.483,0 l -6.025,0 -9.158,32.149 6.266,0 6.266,-24.726 6.651,24.726 4.483,0 6.651,-24.726 6.266,24.726 6.315,0 L 6.025,0 0,0 Z"
             style="fill:#58595b;fill-opacity:1;fill-rule:nonzero;stroke:none"
             id="path4213"
             inkscape:connector-curvature="0" /></g><g
           id="g4215"
           transform="translate(72.1768,17.8252)"><path
             d="m 0,0 0,32.149 22.027,0 0,-4.962 -16.388,0 0,-8.294 16.05,0 0,-4.963 -16.05,0 0,-8.964 16.388,0 L 22.027,0 0,0 Z"
             style="fill:#58595b;fill-opacity:1;fill-rule:nonzero;stroke:none"
             id="path4217"
             inkscape:connector-curvature="0" /></g><g
           id="g4219"
           transform="translate(123.6646,27.2739)"><path
             d="m 0,0 c 0,2.41 -1.688,4.481 -4.869,4.481 l -9.301,0 0,-8.964 9.301,0 C -1.832,-4.483 0,-2.795 0,0 m -0.626,13.588 c 0,2.363 -1.639,4.15 -4.484,4.15 l -9.06,0 0,-8.294 9.06,0 c 2.845,0 4.484,1.688 4.484,4.144 m -19.184,-23.037 0,32.15 15.809,0 c 5.929,0 9.158,-3.665 9.158,-8.195 0,-4.002 -2.603,-6.749 -5.591,-7.372 3.471,-0.532 6.218,-3.954 6.218,-7.856 0,-5.015 -3.278,-8.727 -9.352,-8.727 l -16.242,0 z"
             style="fill:#58595b;fill-opacity:1;fill-rule:nonzero;stroke:none"
             id="path4221"
             inkscape:connector-curvature="0" /></g><g
           id="g4223"
           transform="translate(178.2925,33.9233)"><path
             d="m 0,0 c 0,6.169 -3.856,11.089 -10.989,11.089 l -6.363,0 0,-22.221 6.314,0 C -4.048,-11.132 0,-6.122 0,0 m -22.991,-16.098 0,32.149 11.953,0 C -0.964,16.051 5.784,9.401 5.784,0 c 0,-9.492 -6.748,-16.098 -16.773,-16.098 l -12.002,0 z"
             style="fill:#58595b;fill-opacity:1;fill-rule:nonzero;stroke:none"
             id="path4225"
             inkscape:connector-curvature="0" /></g><g
           id="g4227"
           transform="translate(193.3926,17.8252)"><path
             d="m 0,0 0,32.149 22.027,0 0,-4.962 -16.387,0 0,-8.294 16.049,0 0,-4.963 -16.049,0 0,-8.964 16.387,0 L 22.027,0 0,0 Z"
             style="fill:#58595b;fill-opacity:1;fill-rule:nonzero;stroke:none"
             id="path4229"
             inkscape:connector-curvature="0" /></g><g
           id="g4231"
           transform="translate(234.3726,17.8252)"><path
             d="m 0,0 -12.627,32.149 6.41,0 9.737,-25.98 9.735,25.98 6.411,0 L 7.038,0 0,0 Z"
             style="fill:#58595b;fill-opacity:1;fill-rule:nonzero;stroke:none"
             id="path4233"
             inkscape:connector-curvature="0" /></g><g
           id="g4235"
           transform="translate(261.3779,17.8252)"><path
             d="m 0,0 0,32.149 22.027,0 0,-4.962 -16.387,0 0,-8.294 16.049,0 0,-4.963 -16.049,0 0,-8.964 16.387,0 L 22.027,0 0,0 Z"
             style="fill:#58595b;fill-opacity:1;fill-rule:nonzero;stroke:none"
             id="path4237"
             inkscape:connector-curvature="0" /></g><g
           id="g4239"
           transform="translate(292.6699,17.8252)"><path
             d="m 0,0 0,32.149 5.64,0 0,-27.183 14.171,0 L 19.811,0 0,0 Z"
             style="fill:#58595b;fill-opacity:1;fill-rule:nonzero;stroke:none"
             id="path4241"
             inkscape:connector-curvature="0" /></g><g
           id="g4243"
           transform="translate(345.5547,33.8755)"><path
             d="m 0,0 c 0,6.649 -4.193,11.617 -10.652,11.617 -6.508,0 -10.652,-4.968 -10.652,-11.617 0,-6.602 4.144,-11.616 10.652,-11.616 C -4.193,-11.616 0,-6.602 0,0 m -27.087,0 c 0,9.592 6.795,16.631 16.435,16.631 9.591,0 16.436,-7.039 16.436,-16.631 0,-9.591 -6.845,-16.625 -16.436,-16.625 -9.64,0 -16.435,7.034 -16.435,16.625"
             style="fill:#58595b;fill-opacity:1;fill-rule:nonzero;stroke:none"
             id="path4245"
             inkscape:connector-curvature="0" /></g><g
           id="g4247"
           transform="translate(379.4536,39.9023)"><path
             d="m 0,0 c 0,3.085 -2.266,5.11 -5.447,5.11 l -7.76,0 0,-10.171 7.76,0 C -2.266,-5.061 0,-3.037 0,0 m -18.846,-22.077 0,32.149 14.17,0 C 2.072,10.072 5.783,5.495 5.783,0 c 0,-5.447 -3.759,-10.028 -10.459,-10.028 l -8.531,0 0,-12.049 -5.639,0 z"
             style="fill:#58595b;fill-opacity:1;fill-rule:nonzero;stroke:none"
             id="path4249"
             inkscape:connector-curvature="0" /></g><g
           id="g4251"
           transform="translate(421.5928,17.8252)"><path
             d="M 0,0 0,24.825 -9.834,0 l -2.409,0 -9.881,24.825 0,-24.825 -5.64,0 0,32.149 7.953,0 8.772,-22.073 8.726,22.073 7.952,0 L 5.639,0 0,0 Z"
             style="fill:#58595b;fill-opacity:1;fill-rule:nonzero;stroke:none"
             id="path4253"
             inkscape:connector-curvature="0" /></g><g
           id="g4255"
           transform="translate(437.9492,17.8252)"><path
             d="m 0,0 0,32.149 22.026,0 0,-4.962 -16.388,0 0,-8.294 16.05,0 0,-4.963 -16.05,0 0,-8.964 16.388,0 L 22.026,0 0,0 Z"
             style="fill:#58595b;fill-opacity:1;fill-rule:nonzero;stroke:none"
             id="path4257"
             inkscape:connector-curvature="0" /></g><g
           id="g4259"
           transform="translate(492.04,17.8252)"><path
             d="m 0,0 -16.774,22.991 0,-22.991 -5.642,0 0,32.149 5.784,0 16.437,-22.268 0,22.268 5.641,0 L 5.446,0 0,0 Z"
             style="fill:#58595b;fill-opacity:1;fill-rule:nonzero;stroke:none"
             id="path4261"
             inkscape:connector-curvature="0" /></g><g
           id="g4263"
           transform="translate(515.8613,17.8252)"><path
             d="m 0,0 0,27.187 -9.733,0 0,4.962 25.109,0 0,-4.962 -9.733,0 L 5.643,0 0,0 Z"
             style="fill:#58595b;fill-opacity:1;fill-rule:nonzero;stroke:none"
             id="path4265"
             inkscape:connector-curvature="0" /></g><g
           id="g4267"
           transform="translate(554.7754,33.8755)"><path
             d="m 0,0 c 0,9.93 7.376,16.631 16.868,16.631 6.46,0 10.509,-3.327 12.872,-7.182 L 24.968,6.94 c -1.545,2.699 -4.678,4.677 -8.1,4.677 C 10.509,11.617 5.784,6.797 5.784,0 c 0,-6.697 4.725,-11.616 11.084,-11.616 3.422,0 6.555,2.025 8.1,4.677 l 4.819,-2.41 C 27.33,-13.204 23.328,-16.625 16.868,-16.625 7.376,-16.625 0,-9.881 0,0"
             style="fill:#58595b;fill-opacity:1;fill-rule:nonzero;stroke:none"
             id="path4269"
             inkscape:connector-curvature="0" /></g><g
           id="g4271"
           transform="translate(618.6045,33.8755)"><path
             d="m 0,0 c 0,6.649 -4.193,11.617 -10.652,11.617 -6.507,0 -10.652,-4.968 -10.652,-11.617 0,-6.602 4.145,-11.616 10.652,-11.616 C -4.193,-11.616 0,-6.602 0,0 m -27.089,0 c 0,9.592 6.798,16.631 16.437,16.631 9.591,0 16.436,-7.039 16.436,-16.631 0,-9.591 -6.845,-16.625 -16.436,-16.625 -9.639,0 -16.437,7.034 -16.437,16.625"
             style="fill:#58595b;fill-opacity:1;fill-rule:nonzero;stroke:none"
             id="path4273"
             inkscape:connector-curvature="0" /></g><g
           id="g4275"
           transform="translate(661.4199,17.8252)"><path
             d="M 0,0 0,24.825 -9.83,0 l -2.41,0 -9.881,24.825 0,-24.825 -5.642,0 0,32.149 7.952,0 8.774,-22.073 8.723,22.073 7.956,0 L 5.642,0 0,0 Z"
             style="fill:#58595b;fill-opacity:1;fill-rule:nonzero;stroke:none"
             id="path4277"
             inkscape:connector-curvature="0" /></g><g
           id="g4279"
           transform="translate(696.6211,39.9023)"><path
             d="m 0,0 c 0,3.085 -2.263,5.11 -5.447,5.11 l -7.758,0 0,-10.171 7.758,0 C -2.263,-5.061 0,-3.037 0,0 m -18.847,-22.077 0,32.149 14.174,0 C 2.072,10.072 5.784,5.495 5.784,0 c 0,-5.447 -3.761,-10.028 -10.457,-10.028 l -8.532,0 0,-12.049 -5.642,0 z"
             style="fill:#58595b;fill-opacity:1;fill-rule:nonzero;stroke:none"
             id="path4281"
             inkscape:connector-curvature="0" /></g><g
           id="g4283"
           transform="translate(720.2051,44.3374)"><path
             d="m 0,0 -5.784,-15.328 11.569,0 L 0,0 Z m 9.734,-26.512 -2.361,6.217 -14.749,0 -2.362,-6.217 -6.408,0 12.625,32.149 7.039,0 12.628,-32.149 -6.412,0 z"
             style="fill:#58595b;fill-opacity:1;fill-rule:nonzero;stroke:none"
             id="path4285"
             inkscape:connector-curvature="0" /></g><g
           id="g4287"
           transform="translate(766.1006,17.8252)"><path
             d="m 0,0 -16.773,22.991 0,-22.991 -5.638,0 0,32.149 5.785,0 16.437,-22.268 0,22.268 5.636,0 L 5.447,0 0,0 Z"
             style="fill:#58595b;fill-opacity:1;fill-rule:nonzero;stroke:none"
             id="path4289"
             inkscape:connector-curvature="0" /></g><g
           id="g4291"
           transform="translate(791.4209,17.8252)"><path
             d="m 0,0 0,13.351 -12.481,18.798 6.454,0 8.822,-13.736 8.821,13.736 6.459,0 L 5.637,13.351 5.637,0 0,0 Z"
             style="fill:#58595b;fill-opacity:1;fill-rule:nonzero;stroke:none"
             id="path4293"
             inkscape:connector-curvature="0" /></g></g></g></g></svg>