<?xml version="1.0" encoding="UTF-8" standalone="no"?>
<!-- Created with Inkscape (http://www.inkscape.org/) -->

<svg
   xmlns:dc="http://purl.org/dc/elements/1.1/"
   xmlns:cc="http://creativecommons.org/ns#"
   xmlns:rdf="http://www.w3.org/1999/02/22-rdf-syntax-ns#"
   xmlns:svg="http://www.w3.org/2000/svg"
   xmlns="http://www.w3.org/2000/svg"
   xmlns:sodipodi="http://sodipodi.sourceforge.net/DTD/sodipodi-0.dtd"
   xmlns:inkscape="http://www.inkscape.org/namespaces/inkscape"
   id="svg3355"
   version="1.1"
   inkscape:version="0.91 r13725"
   xml:space="preserve"
   width="755.51251"
   height="111.2875"
   viewBox="0 0 755.51251 111.2875"
   sodipodi:docname="extension_engine.svg"><metadata
     id="metadata3361"><rdf:RDF><cc:Work
         rdf:about=""><dc:format>image/svg+xml</dc:format><dc:type
           rdf:resource="http://purl.org/dc/dcmitype/StillImage" /><dc:title></dc:title></cc:Work></rdf:RDF></metadata><defs
     id="defs3359"><clipPath
       clipPathUnits="userSpaceOnUse"
       id="clipPath3371"><path
         d="M 0,0 0,890 6044,890 6044,0 0,0 Z"
         id="path3373"
         inkscape:connector-curvature="0" /></clipPath><clipPath
       clipPathUnits="userSpaceOnUse"
       id="clipPath3377"><path
         d="m 198.883,557.383 c -1.11,21.23 46.933,144.14 198.89,144.14 145.25,0 181.563,-144.14 181.563,-144.14 l -380.453,0 z m 511.738,-2.235 -5.289,16.438 c 0.106,13.547 -2.633,28.504 -8.559,43.41 -3.691,9.234 -8.281,17.664 -13.472,25.074 l -3.961,12.285 23.453,73.754 -46.918,55.864 -78.219,-13.414 -5.543,2.843 c -10.609,12.621 -26.738,23.828 -46.328,30.953 -8.988,3.286 -17.957,5.372 -26.637,6.465 l -8.64,4.438 -35.75,72.621 -75.981,4.465 -46.929,-64.785 -16.11,-5.778 c -10.09,-0.715 -20.718,-2.843 -31.386,-6.574 -11.332,-3.957 -21.524,-9.301 -30.211,-15.473 l -12.797,-4.589 -77.102,29.043 -54.746,-48.036 12.285,-81.574 -6.179,-11.762 C 110.32,675.637 105.316,669.766 100.754,663.219 89.7227,647.441 83.1211,630.492 81.0352,615.063 L 75.9688,605.434 6.69531,571.914 0,495.938 68.1563,445.645 c 0,0 506.7417,6.152 508.3827,0 6.707,-25.125 -65.918,-148.602 -177.66,-148.602 -111.734,0 -156.418,63.68 -156.418,63.68 l -147.4844,0 -29.0586,-77.071 51.391,-58.117 77.101,12.297 13.942,-7.684 c 6.484,-6.339 14.074,-12.246 22.648,-17.375 11.336,-6.828 23.059,-11.433 34.344,-14.043 l 16.222,-8.945 37.989,-69.265 77.101,0 41.34,58.085 18.692,5.614 c 11.425,-0.117 23.738,1.633 36.187,5.449 11.855,3.633 22.547,8.777 31.641,14.902 l 14.035,4.2 72.625,-23.457 52.512,49.14 -8.93,76.008 3.34,6.426 c 6.918,6.804 13.355,14.929 18.914,24.16 8.476,14.109 13.679,28.855 15.64,42.574 l 10.141,19.563 65.93,32.402 5.578,75.977 -63.68,43.585 z"
         id="path3379"
         inkscape:connector-curvature="0" /></clipPath><linearGradient
       x1="0"
       y1="0"
       x2="1"
       y2="0"
       gradientUnits="userSpaceOnUse"
       gradientTransform="matrix(-3.25e-5,-743.51,-743.51,3.25e-5,387.153,909.336)"
       spreadMethod="pad"
       id="linearGradient3381"><stop
         style="stop-opacity:1;stop-color:#7697d5"
         offset="0"
         id="stop3383" /><stop
         style="stop-opacity:1;stop-color:#5775c3"
         offset="1"
         id="stop3385" /></linearGradient><clipPath
       clipPathUnits="userSpaceOnUse"
       id="clipPath3393"><path
         d="m 984.059,333.918 c 0,0 -117.149,91.492 -58.418,224.324 61.445,138.996 193.289,133.235 212.249,123.633 L 984.059,333.918 Z m -36.942,-196.848 71.753,-25.617 56.29,47.192 21.99,1.343 c 13.35,-3.718 28.92,-4.929 45.3,-2.91 10.68,1.379 20.69,3.988 29.72,7.551 l 7.24,0.441 65.87,-38.898 66.19,28.164 7.91,75.906 9.53,11.156 c 9.27,5.829 18.3,13.536 26.43,22.899 8.52,9.824 15.09,20.398 19.61,30.91 l 12.69,14.813 69.86,14.328 31.17,70.496 -47.99,62.754 -1.62,18.468 c 2.18,11.372 2.68,23.969 1.04,37.082 -1.23,9.922 -3.56,19.262 -6.74,27.743 l -1.39,15.863 42.42,65.531 -32.36,70.492 -82.26,4.61 -59.64,-134.883 c 0,0 40.17,-66.641 -4.99,-168.82 -45.19,-102.18 -187.48,-118.696 -207.77,-102.395 -4.96,3.984 205.58,464.961 205.58,464.961 l -18.44,82.676 -72.19,24.594 -58.66,-49.797 -10.86,-0.743 c -14.97,4.34 -33.12,5.145 -52.03,1.438 -7.82,-1.523 -15.21,-3.723 -22.08,-6.473 l -13.27,-0.894 -69.643,44.23 -66.082,-30.64 -4.597,-82.282 -9.352,-9.851 c -9.18,-5.426 -18.18,-12.59 -26.391,-21.36 -7.718,-8.257 -13.972,-17.109 -18.703,-26.039 l -11.773,-12.418 -78.266,-16.707 -26.629,-71.308 51.973,-62.051 0.563,-9.715 c -2.504,-8.363 -4.231,-17.422 -4.872,-26.972 -1.382,-20.778 2.332,-40.083 9.586,-54.875 l 0.371,-6.223 -43.906,-66.121 32.121,-65.5 76.95,-8.36 9.617,-8.593 c 4.683,-7.735 10.527,-15.352 17.504,-22.481 11.226,-11.465 23.804,-19.988 36.222,-25.359 l 12.899,-11.485 14.105,-75.871 z"
         id="path3395"
         inkscape:connector-curvature="0" /></clipPath><linearGradient
       x1="0"
       y1="0"
       x2="1"
       y2="0"
       gradientUnits="userSpaceOnUse"
       gradientTransform="matrix(-3.39e-5,-775.535,-775.535,3.39e-5,1111.33,919.405)"
       spreadMethod="pad"
       id="linearGradient3397"><stop
         style="stop-opacity:1;stop-color:#bbd5aa"
         offset="0"
         id="stop3399" /><stop
         style="stop-opacity:1;stop-color:#acc89c"
         offset="1"
         id="stop3401" /></linearGradient><clipPath
       clipPathUnits="userSpaceOnUse"
       id="clipPath3409"><path
         d="m 583.844,49.543 c 0,-20.3125 -98.633,-36.7305 -220.313,-36.7305 -121.656,0 -220.293,16.418 -220.293,36.7305 0,20.2617 98.637,36.707 220.293,36.707 121.68,0 220.313,-16.4453 220.313,-36.707 z"
         id="path3411"
         inkscape:connector-curvature="0" /></clipPath><radialGradient
       fx="0"
       fy="0"
       cx="0"
       cy="0"
       r="1"
       gradientUnits="userSpaceOnUse"
       gradientTransform="matrix(220.298,0,0,-36.7207,363.545,49.531)"
       spreadMethod="pad"
       id="radialGradient3413"><stop
         style="stop-opacity:1;stop-color:#d2dee3"
         offset="0"
         id="stop3415" /><stop
         style="stop-opacity:1;stop-color:#ffffff"
         offset="0.989011"
         id="stop3417" /><stop
         style="stop-opacity:1;stop-color:#ffffff"
         offset="1"
         id="stop3419" /></radialGradient><clipPath
       clipPathUnits="userSpaceOnUse"
       id="clipPath3427"><path
         d="m 1374.93,49.543 c 0,-20.3125 -98.65,-36.7305 -220.33,-36.7305 -121.65,0 -220.291,16.418 -220.291,36.7305 0,20.2617 98.641,36.707 220.291,36.707 121.68,0 220.33,-16.4453 220.33,-36.707 z"
         id="path3429"
         inkscape:connector-curvature="0" /></clipPath><radialGradient
       fx="0"
       fy="0"
       cx="0"
       cy="0"
       r="1"
       gradientUnits="userSpaceOnUse"
       gradientTransform="matrix(220.302,0,0,-36.7214,1154.62,49.531)"
       spreadMethod="pad"
       id="radialGradient3431"><stop
         style="stop-opacity:1;stop-color:#d2dee3"
         offset="0"
         id="stop3433" /><stop
         style="stop-opacity:1;stop-color:#ffffff"
         offset="0.989011"
         id="stop3435" /><stop
         style="stop-opacity:1;stop-color:#ffffff"
         offset="1"
         id="stop3437" /></radialGradient></defs><sodipodi:namedview
     pagecolor="#ffffff"
     bordercolor="#666666"
     borderopacity="1"
     objecttolerance="10"
     gridtolerance="10"
     guidetolerance="10"
     inkscape:pageopacity="0"
     inkscape:pageshadow="2"
     inkscape:window-width="2560"
     inkscape:window-height="1410"
     id="namedview3357"
     showgrid="false"
     inkscape:zoom="2.6485332"
     inkscape:cx="377.75626"
     inkscape:cy="55.643749"
     inkscape:window-x="0"
     inkscape:window-y="30"
     inkscape:window-maximized="1"
     inkscape:current-layer="g3363" /><g
     id="g3363"
     inkscape:groupmode="layer"
     inkscape:label="ink_ext_XXXXXX"
     transform="matrix(1.25,0,0,-1.25,0,111.2875)"><g
       id="g3365"
       transform="scale(0.1,0.1)"><g
         id="g3367"><g
           id="g3369"
           clip-path="url(#clipPath3371)"><g
             id="g3375"
             clip-path="url(#clipPath3377)"><path
               d="m 319,120 0,1 -1,0 0,2 -1,0 0,2 -1,0 0,2 -1,0 0,1 -1,0 0,2 -1,0 0,2 -1,0 0,2 -1,0 0,2 -1,0 0,1 -1,0 0,2 -1,0 0,2 -1,0 0,2 -1,0 0,2 -1,0 0,2 -1,0 0,1 -1,0 0,2 -1,0 0,2 -1,0 0,2 -1,0 0,2 -1,0 0,2 -1,0 0,1 -1,0 0,2 -1,0 0,2 -1,0 0,2 -1,0 0,2 -1,0 0,1 -1,0 0,2 -1,0 0,2 -1,0 0,2 -1,0 0,2 -1,0 0,2 -1,0 0,1 -1,0 0,2 -1,0 0,2 -1,0 0,2 -1,0 0,2 -1,0 0,2 -1,0 0,1 -2,0 0,1 -2,0 0,1 -2,0 0,1 -2,0 0,1 -1,0 0,1 -2,0 0,1 -2,0 0,1 -2,0 0,1 -2,0 0,1 -3,0 0,1 -3,0 0,1 -3,0 0,1 -4,0 0,1 -3,0 0,1 -2,0 0,1 -2,0 0,1 -2,0 0,1 -2,0 0,1 -2,0 0,1 -2,0 0,1 -2,0 0,1 -2,0 0,1 -2,0 0,1 -1,0 0,1 -2,0 0,1 -1,0 0,1 -2,0 0,1 -1,0 0,1 -2,0 0,1 -1,0 0,1 -2,0 0,1 -1,0 0,1 -1,0 0,1 -1,0 0,1 -1,0 0,1 -1,0 0,1 -2,0 0,1 -1,0 0,1 -1,0 0,1 -1,0 0,1 -2,0 0,1 -1,0 0,1 -2,0 0,1 -2,0 0,1 -2,0 0,1 -2,0 0,1 -2,0 0,1 -5,0 0,-1 -7,0 0,-1 -6,0 0,-1 -6,0 0,-1 -6,0 0,-1 -7,0 0,-1 -6,0 0,-1 -6,0 0,-1 -6,0 0,-1 -7,0 0,-1 -6,0 0,-1 -6,0 0,-1 -5,0 0,2 -1,0 0,1 -1,0 0,1 -1,0 0,1 -1,0 0,1 -1,0 0,1 -1,0 0,1 -1,0 0,1 -1,0 0,2 -1,0 0,1 -1,0 0,1 -1,0 0,1 -1,0 0,1 -1,0 0,1 -1,0 0,1 -1,0 0,1 -1,0 0,2 -1,0 0,1 -1,0 0,1 -1,0 0,1 -1,0 0,1 -1,0 0,1 -1,0 0,1 -1,0 0,2 -1,0 0,1 -1,0 0,1 -1,0 0,1 -1,0 0,1 -1,0 0,1 -1,0 0,1 -1,0 0,1 -1,0 0,2 -1,0 0,1 -1,0 0,1 -1,0 0,1 -1,0 0,1 -1,0 0,1 -1,0 0,1 -1,0 0,1 -1,0 0,2 -1,0 0,1 -1,0 0,1 -1,0 0,1 -1,0 0,1 -1,0 0,1 -1,0 0,1 -1,0 0,2 -1,0 0,1 -1,0 0,1 -1,0 0,1 -1,0 0,1 -1,0 0,1 1,0 0,3 1,0 0,3 1,0 0,2 1,0 0,3 1,0 0,3 1,0 0,2 1,0 0,3 1,0 0,3 1,0 0,2 1,0 0,3 1,0 0,3 1,0 0,2 1,0 0,3 1,0 0,2 1,0 0,3 1,0 0,3 1,0 0,2 1,0 0,3 1,0 0,3 1,0 0,2 1,0 0,3 1,0 0,3 1,0 0,2 1,0 0,3 1,0 0,3 1,0 0,2 1,0 0,3 1,0 0,3 1,0 0,2 149,0 0,-1 1,0 0,-1 1,0 0,-1 1,0 0,-1 1,0 0,-1 1,0 0,-1 1,0 0,-1 1,0 0,-1 1,0 0,-2 1,0 0,-1 2,0 0,-1 1,0 0,-1 1,0 0,-1 1,0 0,-1 1,0 0,-1 1,0 0,-1 1,0 0,-1 1,0 0,-1 1,0 0,-1 2,0 0,-1 1,0 0,-1 1,0 0,-1 2,0 0,-1 1,0 0,-1 1,0 0,-1 2,0 0,-1 1,0 0,-1 2,0 0,-1 1,0 0,-1 2,0 0,-1 1,0 0,-1 2,0 0,-1 1,0 0,-1 2,0 0,-1 2,0 0,-1 2,0 0,-1 1,0 0,-1 2,0 0,-1 2,0 0,-1 2,0 0,-1 2,0 0,-1 2,0 0,-1 2,0 0,-1 3,0 0,-1 2,0 0,-1 2,0 0,-1 3,0 0,-1 2,0 0,-1 3,0 0,-1 3,0 0,-1 3,0 0,-1 3,0 0,-1 3,0 0,-1 4,0 0,-1 3,0 0,-1 4,0 0,-1 4,0 0,-1 5,0 0,-1 6,0 0,-1 5,0 0,-1 9,0 0,-1 9,0 0,-1 35,0 0,1 10,0 0,1 5,0 0,1 5,0 0,1 4,0 0,1 4,0 0,1 3,0 0,1 3,0 0,1 3,0 0,1 3,0 0,1 3,0 0,1 3,0 0,1 2,0 0,1 2,0 0,1 2,0 0,1 2,0 0,1 2,0 0,1 3,0 0,1 2,0 0,1 2,0 0,1 1,0 0,1 2,0 0,1 2,0 0,1 1,0 0,1 2,0 0,1 2,0 0,1 1,0 0,1 2,0 0,1 2,0 0,1 1,0 0,1 2,0 0,1 1,0 0,1 1,0 0,1 2,0 0,1 1,0 0,1 1,0 0,1 2,0 0,1 1,0 0,1 2,0 0,1 1,0 0,1 1,0 0,1 1,0 0,1 1,0 0,1 2,0 0,1 1,0 0,1 1,0 0,1 1,0 0,1 1,0 0,1 1,0 0,1 1,0 0,1 2,0 0,1 1,0 0,1 1,0 0,1 1,0 0,1 1,0 0,1 1,0 0,1 1,0 0,1 1,0 0,1 1,0 0,1 1,0 0,1 1,0 0,1 1,0 0,1 1,0 0,1 1,0 0,1 1,0 0,1 1,0 0,2 1,0 0,1 1,0 0,1 1,0 0,1 1,0 0,1 1,0 0,1 1,0 0,2 1,0 0,1 1,0 0,1 1,0 0,1 1,0 0,1 1,0 0,2 1,0 0,1 1,0 0,1 1,0 0,2 1,0 0,1 1,0 0,1 1,0 0,2 1,0 0,1 1,0 0,1 1,0 0,2 1,0 0,2 1,0 0,1 1,0 0,2 1,0 0,1 1,0 0,2 1,0 0,1 1,0 0,2 1,0 0,2 1,0 0,2 1,0 0,1 1,0 0,2 1,0 0,2 1,0 0,2 1,0 0,2 1,0 0,2 1,0 0,2 1,0 0,2 1,0 0,3 1,0 0,2 1,0 0,3 1,0 0,3 1,0 0,5 1,0 0,9 -1,0 0,1 -11,0 0,1 -42,0 0,1 -192,0 0,-1 -131,0 0,-1 -100,0 0,-1 -32,0 0,1 -1,0 0,1 -2,0 0,1 -1,0 0,1 -1,0 0,1 -2,0 0,1 -1,0 0,1 -1,0 0,1 -2,0 0,1 -1,0 0,1 -1,0 0,1 -2,0 0,1 -1,0 0,1 -1,0 0,1 -2,0 0,1 -1,0 0,1 -1,0 0,1 -2,0 0,1 -1,0 0,1 -2,0 0,1 -1,0 0,1 -1,0 0,1 -2,0 0,1 -1,0 0,1 -1,0 0,1 -2,0 0,1 -1,0 0,1 -1,0 0,1 -2,0 0,1 -1,0 0,1 -1,0 0,1 -2,0 0,1 -1,0 0,1 -2,0 0,1 -1,0 0,1 -1,0 0,1 -2,0 0,1 -1,0 0,1 -1,0 0,1 -2,0 0,1 -1,0 0,1 -1,0 0,1 -2,0 0,1 -1,0 0,1 -1,0 0,1 -2,0 0,1 -1,0 0,1 -2,0 0,1 -1,0 0,1 -1,0 0,1 -1,0 0,13 1,0 0,11 1,0 0,11 1,0 0,12 1,0 0,11 1,0 0,11 1,0 0,9 2,0 0,1 3,0 0,1 2,0 0,1 2,0 0,1 2,0 0,1 2,0 0,1 2,0 0,1 2,0 0,1 2,0 0,1 2,0 0,1 2,0 0,1 2,0 0,1 2,0 0,1 2,0 0,1 2,0 0,1 2,0 0,1 3,0 0,1 2,0 0,1 2,0 0,1 2,0 0,1 2,0 0,1 2,0 0,1 2,0 0,1 2,0 0,1 2,0 0,1 2,0 0,1 2,0 0,1 2,0 0,1 2,0 0,1 2,0 0,1 2,0 0,1 3,0 0,1 2,0 0,1 1,0 0,2 1,0 0,2 1,0 0,2 1,0 0,2 1,0 0,1 1,0 0,5 1,0 0,5 1,0 0,4 1,0 0,3 1,0 0,3 1,0 0,3 1,0 0,2 1,0 0,3 1,0 0,2 1,0 0,2 1,0 0,2 1,0 0,2 1,0 0,2 1,0 0,1 1,0 0,2 1,0 0,2 1,0 0,1 1,0 0,2 1,0 0,1 1,0 0,2 1,0 0,1 1,0 0,1 1,0 0,2 1,0 0,1 1,0 0,1 1,0 0,1 1,0 0,1 1,0 0,1 1,0 0,2 1,0 0,1 1,0 0,1 1,0 0,1 1,0 0,1 1,0 0,2 1,0 0,1 1,0 0,2 1,0 0,2 1,0 0,2 1,0 0,2 1,0 0,2 1,0 0,5 -1,0 0,7 -1,0 0,7 -1,0 0,6 -1,0 0,7 -1,0 0,6 -1,0 0,7 -1,0 0,7 -1,0 0,6 -1,0 0,7 -1,0 0,7 -1,0 0,6 -1,0 0,5 1,0 0,1 1,0 0,1 1,0 0,1 1,0 0,1 2,0 0,1 1,0 0,1 1,0 0,1 1,0 0,1 1,0 0,1 1,0 0,1 1,0 0,1 2,0 0,1 1,0 0,1 1,0 0,1 1,0 0,1 1,0 0,1 1,0 0,1 1,0 0,1 1,0 0,1 2,0 0,1 1,0 0,1 1,0 0,1 1,0 0,1 1,0 0,1 1,0 0,1 1,0 0,1 2,0 0,1 1,0 0,1 1,0 0,1 1,0 0,1 1,0 0,1 1,0 0,1 1,0 0,1 2,0 0,1 1,0 0,1 1,0 0,1 1,0 0,1 1,0 0,1 1,0 0,1 1,0 0,1 2,0 0,1 1,0 0,1 1,0 0,1 1,0 0,1 1,0 0,1 1,0 0,1 1,0 0,1 2,0 0,1 1,0 0,-1 3,0 0,-1 3,0 0,-1 2,0 0,-1 3,0 0,-1 3,0 0,-1 2,0 0,-1 3,0 0,-1 2,0 0,-1 3,0 0,-1 3,0 0,-1 2,0 0,-1 3,0 0,-1 3,0 0,-1 2,0 0,-1 3,0 0,-1 3,0 0,-1 2,0 0,-1 3,0 0,-1 3,0 0,-1 2,0 0,-1 3,0 0,-1 3,0 0,-1 2,0 0,-1 3,0 0,-1 3,0 0,-1 2,0 0,-1 3,0 0,-1 3,0 0,-1 3,0 0,1 3,0 0,1 3,0 0,1 3,0 0,1 2,0 0,1 2,0 0,1 1,0 0,1 2,0 0,1 2,0 0,1 1,0 0,1 2,0 0,1 2,0 0,1 1,0 0,1 2,0 0,1 3,0 0,1 2,0 0,1 2,0 0,1 3,0 0,1 2,0 0,1 2,0 0,1 4,0 0,1 3,0 0,1 4,0 0,1 4,0 0,1 4,0 0,1 8,0 0,1 6,0 0,1 3,0 0,1 2,0 0,1 3,0 0,1 3,0 0,1 3,0 0,1 2,0 0,2 1,0 0,1 1,0 0,1 1,0 0,2 1,0 0,1 1,0 0,2 1,0 0,1 1,0 0,1 1,0 0,2 1,0 0,1 1,0 0,1 1,0 0,2 1,0 0,1 1,0 0,2 1,0 0,1 1,0 0,1 1,0 0,2 1,0 0,1 1,0 0,1 1,0 0,2 1,0 0,1 1,0 0,2 1,0 0,1 1,0 0,1 1,0 0,2 1,0 0,1 1,0 0,2 1,0 0,1 1,0 0,1 1,0 0,2 1,0 0,1 1,0 0,1 1,0 0,2 1,0 0,1 1,0 0,2 1,0 0,1 1,0 0,1 1,0 0,2 1,0 0,1 1,0 0,1 1,0 0,2 1,0 0,1 1,0 0,2 1,0 0,1 1,0 0,1 1,0 0,2 25,0 0,-1 17,0 0,-1 17,0 0,-1 17,0 0,-1 3,0 0,-2 1,0 0,-2 1,0 0,-2 1,0 0,-2 1,0 0,-2 1,0 0,-2 1,0 0,-2 1,0 0,-2 1,0 0,-2 1,0 0,-2 1,0 0,-2 1,0 0,-2 1,0 0,-3 1,0 0,-2 1,0 0,-2 1,0 0,-2 1,0 0,-2 1,0 0,-2 1,0 0,-2 1,0 0,-2 1,0 0,-2 1,0 0,-2 1,0 0,-2 1,0 0,-2 1,0 0,-2 1,0 0,-2 1,0 0,-2 1,0 0,-2 1,0 0,-2 1,0 0,-2 1,0 0,-2 1,0 0,-2 1,0 0,-2 1,0 0,-2 1,0 0,-2 1,0 0,-1 1,0 0,-1 1,0 0,-1 2,0 0,-1 2,0 0,-1 2,0 0,-1 5,0 0,-1 6,0 0,-1 4,0 0,-1 4,0 0,-1 3,0 0,-1 3,0 0,-1 3,0 0,-1 2,0 0,-1 3,0 0,-1 2,0 0,-1 2,0 0,-1 3,0 0,-1 2,0 0,-1 1,0 0,-1 2,0 0,-1 2,0 0,-1 2,0 0,-1 1,0 0,-1 2,0 0,-1 2,0 0,-1 1,0 0,-1 1,0 0,-1 2,0 0,-1 1,0 0,-1 1,0 0,-1 1,0 0,-1 2,0 0,-1 1,0 0,-1 1,0 0,-1 1,0 0,-1 1,0 0,-1 1,0 0,-1 1,0 0,-1 1,0 0,-1 1,0 0,-1 1,0 0,-1 1,0 0,-1 1,0 0,-1 2,0 0,-1 2,0 0,-1 3,0 0,1 6,0 0,1 5,0 0,1 6,0 0,1 6,0 0,1 6,0 0,1 6,0 0,1 6,0 0,1 5,0 0,1 6,0 0,1 6,0 0,1 6,0 0,1 6,0 0,1 7,0 0,-1 1,0 0,-1 1,0 0,-1 1,0 0,-1 1,0 0,-2 1,0 0,-1 1,0 0,-1 1,0 0,-1 1,0 0,-1 1,0 0,-2 1,0 0,-1 1,0 0,-1 1,0 0,-1 1,0 0,-1 1,0 0,-2 1,0 0,-1 1,0 0,-1 1,0 0,-1 1,0 0,-1 1,0 0,-1 1,0 0,-2 1,0 0,-1 1,0 0,-1 1,0 0,-1 1,0 0,-1 1,0 0,-2 1,0 0,-1 1,0 0,-1 1,0 0,-1 1,0 0,-1 1,0 0,-2 1,0 0,-1 1,0 0,-1 1,0 0,-1 1,0 0,-1 1,0 0,-2 1,0 0,-1 1,0 0,-1 1,0 0,-1 1,0 0,-1 1,0 0,-1 1,0 0,-2 1,0 0,-1 1,0 0,-1 1,0 0,-1 1,0 0,-1 1,0 0,-5 -1,0 0,-3 -1,0 0,-3 -1,0 0,-3 -1,0 0,-3 -1,0 0,-4 -1,0 0,-3 -1,0 0,-3 -1,0 0,-3 -1,0 0,-3 -1,0 0,-3 -1,0 0,-3 -1,0 0,-4 -1,0 0,-3 -1,0 0,-3 -1,0 0,-3 -1,0 0,-3 -1,0 0,-3 -1,0 0,-3 -1,0 0,-4 -1,0 0,-3 -1,0 0,-3 -1,0 0,-3 -1,0 0,-3 1,0 0,-3 1,0 0,-3 1,0 0,-3 1,0 0,-3 1,0 0,-1 1,0 0,-2 1,0 0,-1 1,0 0,-2 1,0 0,-2 1,0 0,-1 1,0 0,-2 1,0 0,-2 1,0 0,-2 1,0 0,-3 1,0 0,-2 1,0 0,-2 1,0 0,-2 1,0 0,-4 1,0 0,-3 1,0 0,-3 1,0 0,-4 1,0 0,-3 1,0 0,-4 1,0 0,-8 1,0 0,-10 1,0 0,-6 1,0 0,-3 1,0 0,-3 1,0 0,-3 1,0 0,-3 1,0 0,-3 2,0 0,-1 1,0 0,-1 2,0 0,-1 1,0 0,-1 2,0 0,-1 1,0 0,-1 2,0 0,-1 1,0 0,-1 1,0 0,-1 2,0 0,-1 1,0 0,-1 2,0 0,-1 1,0 0,-1 2,0 0,-1 1,0 0,-1 2,0 0,-1 1,0 0,-1 2,0 0,-1 1,0 0,-1 2,0 0,-1 1,0 0,-1 1,0 0,-1 2,0 0,-1 1,0 0,-1 2,0 0,-1 1,0 0,-1 2,0 0,-1 1,0 0,-1 2,0 0,-1 1,0 0,-1 2,0 0,-1 1,0 0,-1 2,0 0,-1 1,0 0,-1 1,0 0,-1 2,0 0,-1 1,0 0,-1 2,0 0,-1 1,0 0,-1 2,0 0,-1 1,0 0,-1 2,0 0,-1 1,0 0,-1 1,0 0,-5 -1,0 0,-14 -1,0 0,-13 -1,0 0,-14 -1,0 0,-14 -1,0 0,-13 -1,0 0,-4 -1,0 0,-1 -2,0 0,-1 -2,0 0,-1 -2,0 0,-1 -2,0 0,-1 -2,0 0,-1 -2,0 0,-1 -2,0 0,-1 -2,0 0,-1 -2,0 0,-1 -2,0 0,-1 -2,0 0,-1 -2,0 0,-1 -2,0 0,-1 -2,0 0,-1 -2,0 0,-1 -3,0 0,-1 -2,0 0,-1 -2,0 0,-1 -2,0 0,-1 -2,0 0,-1 -2,0 0,-1 -2,0 0,-1 -2,0 0,-1 -2,0 0,-1 -2,0 0,-1 -2,0 0,-1 -2,0 0,-1 -2,0 0,-1 -2,0 0,-1 -2,0 0,-1 -2,0 0,-1 -2,0 0,-2 -1,0 0,-2 -1,0 0,-2 -1,0 0,-2 -1,0 0,-2 -1,0 0,-1 -1,0 0,-2 -1,0 0,-2 -1,0 0,-2 -1,0 0,-2 -1,0 0,-3 -1,0 0,-4 -1,0 0,-4 -1,0 0,-4 -1,0 0,-4 -1,0 0,-4 -1,0 0,-2 -1,0 0,-2 -1,0 0,-2 -1,0 0,-2 -1,0 0,-2 -1,0 0,-2 -1,0 0,-2 -1,0 0,-2 -1,0 0,-2 -1,0 0,-2 -1,0 0,-2 -1,0 0,-1 -1,0 0,-2 -1,0 0,-1 -1,0 0,-2 -1,0 0,-1 -1,0 0,-2 -1,0 0,-1 -1,0 0,-2 -1,0 0,-1 -1,0 0,-1 -1,0 0,-1 -1,0 0,-1 -1,0 0,-1 -1,0 0,-1 -1,0 0,-1 -1,0 0,-1 -1,0 0,-2 -1,0 0,-1 -1,0 0,-2 -1,0 0,-2 -1,0 0,-2 -1,0 0,-1 1,0 0,-9 1,0 0,-8 1,0 0,-9 1,0 0,-8 1,0 0,-9 1,0 0,-8 1,0 0,-9 1,0 0,-8 1,0 0,-8 -1,0 0,-1 -1,0 0,-1 -2,0 0,-1 -1,0 0,-1 -1,0 0,-1 -1,0 0,-1 -1,0 0,-1 -1,0 0,-1 -1,0 0,-1 -1,0 0,-1 -1,0 0,-1 -1,0 0,-1 -1,0 0,-1 -1,0 0,-1 -1,0 0,-1 -1,0 0,-1 -1,0 0,-1 -2,0 0,-1 -1,0 0,-1 -1,0 0,-1 -1,0 0,-1 -1,0 0,-1 -1,0 0,-1 -1,0 0,-1 -1,0 0,-1 -1,0 0,-1 -1,0 0,-1 -1,0 0,-1 -1,0 0,-1 -1,0 0,-1 -1,0 0,-1 -1,0 0,-1 -2,0 0,-1 -1,0 0,-1 -1,0 0,-1 -1,0 0,-1 -1,0 0,-1 -1,0 0,-1 -1,0 0,-1 -1,0 0,-1 -1,0 0,-1 -1,0 0,-1 -1,0 0,-1 -1,0 0,-1 -1,0 0,-1 -1,0 0,-1 -2,0 0,-1 -1,0 0,-1 -3,0 0,1 -4,0 0,1 -3,0 0,1 -3,0 0,1 -3,0 0,1 -3,0 0,1 -3,0 0,1 -3,0 0,1 -3,0 0,1 -3,0 0,1 -3,0 0,1 -3,0 0,1 -4,0 0,1 -3,0 0,1 -3,0 0,1 -3,0 0,1 -3,0 0,1 -3,0 0,1 -3,0 0,1 -3,0 0,1 -3,0 0,1 -3,0 0,1 -4,0 0,1 -4,0 0,-1 -3,0 0,-1 -3,0 0,-1 -4,0 0,-1 -2,0 0,-1 -2,0 0,-1 -2,0 0,-1 -1,0 0,-1 -2,0 0,-1 -2,0 0,-1 -2,0 0,-1 -1,0 0,-1 -2,0 0,-1 -3,0 0,-1 -2,0 0,-1 -3,0 0,-1 -3,0 0,-1 -2,0 0,-1 -3,0 0,-1 -4,0 0,-1 -4,0 0,-1 -4,0 0,-1 -5,0 0,-1 -9,0 0,-1 -12,0 0,-1 -3,0 0,-1 -3,0 0,-1 -4,0 0,-1 -3,0 0,-1 -3,0 0,-1 -2,0 0,-1 -1,0 0,-2 -1,0 0,-1 -1,0 0,-2 -1,0 0,-1 -1,0 0,-1 -1,0 0,-2 -1,0 0,-1 -1,0 0,-2 -1,0 0,-1 -1,0 0,-1 -1,0 0,-2 -1,0 0,-1 -1,0 0,-2 -1,0 0,-1 -1,0 0,-1 -1,0 0,-2 -1,0 0,-1 -1,0 0,-2 -1,0 0,-1 -1,0 0,-1 -1,0 0,-2 -1,0 0,-1 -1,0 0,-2 -1,0 0,-1 -1,0 0,-1 -1,0 0,-2 -1,0 0,-1 -1,0 0,-2 -1,0 0,-1 -1,0 0,-1 -1,0 0,-2 -1,0 0,-1 -1,0 0,-2 -1,0 0,-1 -1,0 0,-1 -1,0 0,-2 -1,0 0,-1 -1,0 0,-2 -1,0 0,-1 -1,0 0,-1 -1,0 0,-1 -78,0 z m -119,439 0,-1 378,0 0,3 -1,0 0,3 -1,0 0,3 -1,0 0,3 -1,0 0,3 -1,0 0,2 -1,0 0,3 -1,0 0,2 -1,0 0,3 -1,0 0,2 -1,0 0,2 -1,0 0,2 -1,0 0,2 -1,0 0,2 -1,0 0,2 -1,0 0,2 -1,0 0,2 -1,0 0,2 -1,0 0,2 -1,0 0,1 -1,0 0,2 -1,0 0,2 -1,0 0,1 -1,0 0,2 -1,0 0,2 -1,0 0,2 -1,0 0,1 -1,0 0,2 -1,0 0,1 -1,0 0,1 -1,0 0,2 -1,0 0,1 -1,0 0,2 -1,0 0,1 -1,0 0,2 -1,0 0,1 -1,0 0,1 -1,0 0,1 -1,0 0,2 -1,0 0,1 -1,0 0,1 -1,0 0,1 -1,0 0,1 -1,0 0,2 -1,0 0,1 -1,0 0,1 -1,0 0,1 -1,0 0,1 -1,0 0,1 -1,0 0,1 -1,0 0,1 -1,0 0,1 -1,0 0,1 -1,0 0,1 -1,0 0,1 -1,0 0,1 -1,0 0,1 -1,0 0,1 -1,0 0,1 -1,0 0,1 -1,0 0,1 -1,0 0,1 -1,0 0,1 -1,0 0,1 -1,0 0,1 -2,0 0,1 -1,0 0,1 -1,0 0,1 -1,0 0,1 -1,0 0,1 -2,0 0,1 -1,0 0,1 -1,0 0,1 -2,0 0,1 -1,0 0,1 -2,0 0,1 -1,0 0,1 -2,0 0,1 -1,0 0,1 -2,0 0,1 -1,0 0,1 -2,0 0,1 -2,0 0,1 -1,0 0,1 -2,0 0,1 -2,0 0,1 -2,0 0,1 -2,0 0,1 -2,0 0,1 -2,0 0,1 -2,0 0,1 -3,0 0,1 -2,0 0,1 -2,0 0,1 -3,0 0,1 -3,0 0,1 -3,0 0,1 -3,0 0,1 -3,0 0,1 -3,0 0,1 -5,0 0,1 -5,0 0,1 -5,0 0,1 -5,0 0,1 -6,0 0,1 -16,0 0,1 -18,0 0,-1 -18,0 0,-1 -6,0 0,-1 -7,0 0,-1 -6,0 0,-1 -6,0 0,-1 -3,0 0,-1 -4,0 0,-1 -4,0 0,-1 -3,0 0,-1 -4,0 0,-1 -4,0 0,-1 -2,0 0,-1 -3,0 0,-1 -2,0 0,-1 -3,0 0,-1 -2,0 0,-1 -3,0 0,-1 -2,0 0,-1 -3,0 0,-1 -2,0 0,-1 -2,0 0,-1 -2,0 0,-1 -2,0 0,-1 -2,0 0,-1 -1,0 0,-1 -2,0 0,-1 -2,0 0,-1 -2,0 0,-1 -2,0 0,-1 -1,0 0,-1 -2,0 0,-1 -1,0 0,-1 -2,0 0,-1 -1,0 0,-1 -2,0 0,-1 -1,0 0,-1 -2,0 0,-1 -1,0 0,-1 -2,0 0,-1 -1,0 0,-1 -2,0 0,-1 -1,0 0,-1 -1,0 0,-1 -1,0 0,-1 -1,0 0,-1 -2,0 0,-1 -1,0 0,-1 -1,0 0,-1 -1,0 0,-1 -2,0 0,-1 -1,0 0,-1 -1,0 0,-1 -1,0 0,-1 -1,0 0,-1 -1,0 0,-1 -1,0 0,-1 -1,0 0,-1 -1,0 0,-1 -1,0 0,-1 -1,0 0,-1 -1,0 0,-1 -1,0 0,-1 -1,0 0,-1 -1,0 0,-1 -1,0 0,-1 -1,0 0,-2 -1,0 0,-1 -1,0 0,-1 -1,0 0,-1 -1,0 0,-1 -1,0 0,-1 -1,0 0,-2 -1,0 0,-1 -1,0 0,-1 -1,0 0,-1 -1,0 0,-2 -1,0 0,-1 -1,0 0,-2 -1,0 0,-1 -1,0 0,-1 -1,0 0,-2 -1,0 0,-1 -1,0 0,-2 -1,0 0,-1 -1,0 0,-2 -1,0 0,-2 -1,0 0,-1 -1,0 0,-2 -1,0 0,-1 -1,0 0,-2 -1,0 0,-2 -1,0 0,-2 -1,0 0,-2 -1,0 0,-2 -1,0 0,-2 -1,0 0,-2 -1,0 0,-2 -1,0 0,-3 -1,0 0,-2 -1,0 0,-2 -1,0 0,-3 -1,0 0,-3 -1,0 0,-3 -1,0 0,-5 -1,0 0,-6"
               style="fill:url(#linearGradient3381);fill-opacity:1;fill-rule:nonzero;stroke:none"
               id="path3387"
               inkscape:connector-curvature="0" /></g></g></g><g
         id="g3389"><g
           id="g3391"
           clip-path="url(#clipPath3393)"><path
             d="m 984.059,333.918 c 0,0 -117.149,91.492 -58.418,224.324 61.445,138.996 193.289,133.235 212.249,123.633 L 984.059,333.918 Z m -36.942,-196.848 71.753,-25.617 56.29,47.192 21.99,1.343 c 13.35,-3.718 28.92,-4.929 45.3,-2.91 10.68,1.379 20.69,3.988 29.72,7.551 l 7.24,0.441 65.87,-38.898 66.19,28.164 7.91,75.906 9.53,11.156 c 9.27,5.829 18.3,13.536 26.43,22.899 8.52,9.824 15.09,20.398 19.61,30.91 l 12.69,14.813 69.86,14.328 31.17,70.496 -47.99,62.754 -1.62,18.468 c 2.18,11.372 2.68,23.969 1.04,37.082 -1.23,9.922 -3.56,19.262 -6.74,27.743 l -1.39,15.863 42.42,65.531 -32.36,70.492 -82.26,4.61 -59.64,-134.883 c 0,0 40.17,-66.641 -4.99,-168.82 -45.19,-102.18 -187.48,-118.696 -207.77,-102.395 -4.96,3.984 205.58,464.961 205.58,464.961 l -18.44,82.676 -72.19,24.594 -58.66,-49.797 -10.86,-0.743 c -14.97,4.34 -33.12,5.145 -52.03,1.438 -7.82,-1.523 -15.21,-3.723 -22.08,-6.473 l -13.27,-0.894 -69.643,44.23 -66.082,-30.64 -4.597,-82.282 -9.352,-9.851 c -9.18,-5.426 -18.18,-12.59 -26.391,-21.36 -7.718,-8.257 -13.972,-17.109 -18.703,-26.039 l -11.773,-12.418 -78.266,-16.707 -26.629,-71.308 51.973,-62.051 0.563,-9.715 c -2.504,-8.363 -4.231,-17.422 -4.872,-26.972 -1.382,-20.778 2.332,-40.083 9.586,-54.875 l 0.371,-6.223 -43.906,-66.121 32.121,-65.5 76.95,-8.36 9.617,-8.593 c 4.683,-7.735 10.527,-15.352 17.504,-22.481 11.226,-11.465 23.804,-19.988 36.222,-25.359 l 12.899,-11.485 14.105,-75.871"
             style="fill:url(#linearGradient3397);fill-opacity:1;fill-rule:nonzero;stroke:none"
             id="path3403"
             inkscape:connector-curvature="0" /></g></g><g
         id="g3405"><g
           id="g3407"
           clip-path="url(#clipPath3409)"><path
             d="m 583.844,49.543 c 0,-20.3125 -98.633,-36.7305 -220.313,-36.7305 -121.656,0 -220.293,16.418 -220.293,36.7305 0,20.2617 98.637,36.707 220.293,36.707 121.68,0 220.313,-16.4453 220.313,-36.707"
             style="fill:url(#radialGradient3413);fill-opacity:1;fill-rule:nonzero;stroke:none"
             id="path3421"
             inkscape:connector-curvature="0" /></g></g><g
         id="g3423"><g
           id="g3425"
           clip-path="url(#clipPath3427)"><path
             d="m 1374.93,49.543 c 0,-20.3125 -98.65,-36.7305 -220.33,-36.7305 -121.65,0 -220.291,16.418 -220.291,36.7305 0,20.2617 98.641,36.707 220.291,36.707 121.68,0 220.33,-16.4453 220.33,-36.707"
             style="fill:url(#radialGradient3431);fill-opacity:1;fill-rule:nonzero;stroke:none"
             id="path3439"
             inkscape:connector-curvature="0" /></g></g><path
         d="m 1739.45,128.879 0,414.617 260.85,0 0,-82.801 -167.47,0 0,-75.957 154.4,0 0,-82.804 -154.4,0 0,-90.254 167.47,0 0,-82.801 -260.85,0"
         style="fill:#231f20;fill-opacity:1;fill-rule:nonzero;stroke:none"
         id="path3441"
         inkscape:connector-curvature="0" /><path
         d="m 2235.02,281.398 96.5,-152.519 -90.27,0 -53.54,84.031 -53.54,-84.031 -90.27,0 96.5,152.519 -94.01,150.645 88.4,0 52.92,-82.805 52.92,82.805 88.4,0 -94.01,-150.645"
         style="fill:#231f20;fill-opacity:1;fill-rule:nonzero;stroke:none"
         id="path3443"
         inkscape:connector-curvature="0" /><path
         d="m 2482.82,122.637 c -57.9,0 -91.52,21.797 -91.52,77.812 l 0,159.395 -41.09,0 0,72.199 41.09,0 0,72.859 89.65,12.438 0,-85.297 69.11,0 -4.98,-72.199 -64.13,0 0,-146.934 c 0,-12.461 7.47,-16.816 18.68,-16.816 9.96,0 24.27,1.261 37.35,5.617 l 10.59,-67.852 c -19.93,-6.847 -44.21,-11.222 -64.75,-11.222"
         style="fill:#231f20;fill-opacity:1;fill-rule:nonzero;stroke:none"
         id="path3445"
         inkscape:connector-curvature="0" /><path
         d="m 2758,329.324 c 0,21.176 -6.23,38.598 -37.36,38.598 -31.12,0 -41.09,-17.422 -41.09,-38.598 l 0,-13.062 78.45,0 0,13.062 z m -78.45,-80.308 0,-8.711 c 0,-34.864 13.71,-44.211 54.8,-44.211 28.01,0 65.36,4.992 92.13,13.097 l 13.07,-67.246 c -27.38,-9.972 -71.59,-19.308 -113.92,-19.308 -98.37,0 -135.72,48.562 -135.72,123.281 l 0,70.945 c 0,65.383 29.26,121.399 130.11,121.399 100.86,0 122.65,-59.746 122.65,-125.75 l 0,-63.496 -163.12,0"
         style="fill:#231f20;fill-opacity:1;fill-rule:nonzero;stroke:none"
         id="path3447"
         inkscape:connector-curvature="0" /><path
         d="m 3084.86,128.879 0,200.445 c 0,13.703 -6.22,21.781 -21.79,21.781 -16.18,0 -46.06,-11.183 -65.36,-21.781 l 0,-200.445 -89.65,0 0,303.164 66.62,0 9.33,-23.027 c 37.36,18.062 85.92,29.246 120.78,29.246 51.67,0 69.72,-38.594 69.72,-97.102 l 0,-212.281 -89.65,0"
         style="fill:#231f20;fill-opacity:1;fill-rule:nonzero;stroke:none"
         id="path3449"
         inkscape:connector-curvature="0" /><path
         d="m 3346.99,122.637 c -33,0 -80.31,8.105 -110.19,18.066 l 14.3,66.594 c 24.92,-7.453 57.91,-13.692 91.54,-13.692 26.76,0 31.12,7.481 31.12,25.528 0,19.305 -0.62,21.805 -49.19,33.633 -73.47,18.054 -80.31,37.968 -80.31,94.617 0,64.121 24.91,90.879 115.81,90.879 23.03,0 65.37,-3.094 92.13,-9.942 l -8.08,-69.734 c -26.79,4.98 -59.77,8.73 -83.44,8.73 -26.14,0 -32.37,-6.867 -32.37,-20.539 0,-18.679 2.49,-21.179 38.6,-29.289 86.55,-19.273 92.77,-37.957 92.77,-98.355 0,-62.258 -26.16,-96.496 -112.69,-96.496"
         style="fill:#231f20;fill-opacity:1;fill-rule:nonzero;stroke:none"
         id="path3451"
         inkscape:connector-curvature="0" /><path
         d="m 3521.96,128.879 0,303.164 89.63,0 0,-303.164 -89.63,0 z m 0,341.16 0,95.238 89.63,0 0,-95.238 -89.63,0"
         style="fill:#231f20;fill-opacity:1;fill-rule:nonzero;stroke:none"
         id="path3453"
         inkscape:connector-curvature="0" /><path
         d="m 3861.26,242.793 0,75.332 c 0,28.652 -14.95,44.816 -47.33,44.816 -32.38,0 -47.31,-16.164 -47.31,-44.816 l 0,-75.332 c 0,-28.621 14.93,-44.832 47.31,-44.832 32.38,0 47.33,16.211 47.33,44.832 z m -184.29,2.5 0,70.344 c 0,62.254 29.25,122.625 136.96,122.625 107.7,0 136.98,-60.371 136.98,-122.625 l 0,-70.344 c 0,-62.266 -29.28,-122.656 -136.98,-122.656 -107.71,0 -136.96,60.39 -136.96,122.656"
         style="fill:#231f20;fill-opacity:1;fill-rule:nonzero;stroke:none"
         id="path3455"
         inkscape:connector-curvature="0" /><path
         d="m 4193.11,128.879 0,200.445 c 0,13.703 -6.25,21.781 -21.81,21.781 -16.19,0 -46.05,-11.183 -65.36,-21.781 l 0,-200.445 -89.65,0 0,303.164 66.62,0 9.34,-23.027 c 37.36,18.062 85.89,29.246 120.77,29.246 51.66,0 69.73,-38.594 69.73,-97.102 l 0,-212.281 -89.64,0"
         style="fill:#231f20;fill-opacity:1;fill-rule:nonzero;stroke:none"
         id="path3457"
         inkscape:connector-curvature="0" /><path
         d="m 4373.04,543.496 244.05,0 0,-47.933 -190.51,0 0,-130.133 176.81,0 0,-47.942 -176.81,0 0,-140.679 191.13,0 0,-47.93 -244.67,0 0,414.617"
         style="fill:#231f20;fill-opacity:1;fill-rule:nonzero;stroke:none"
         id="path3459"
         inkscape:connector-curvature="0" /><path
         d="m 4889.16,128.879 0,231.57 c 0,19.934 -9.94,28.02 -29.25,28.02 -22.41,0 -69.11,-13.703 -101.48,-30.489 l 0,-229.101 -52.3,0 0,303.164 42.35,0 4.96,-26.137 c 33.63,16.196 85.93,32.356 122.03,32.356 48.56,0 65.99,-30.489 65.99,-77.188 l 0,-232.195 -52.3,0"
         style="fill:#231f20;fill-opacity:1;fill-rule:nonzero;stroke:none"
         id="path3461"
         inkscape:connector-curvature="0" /><path
         d="m 5134.47,395.313 c -50.42,0 -69.1,-16.797 -69.1,-61.629 l 0,-13.071 c 0,-46.07 19.31,-60.398 69.1,-60.398 49.81,0 69.11,20.547 69.11,60.398 l 0,13.071 c 0,44.207 -18.68,61.629 -69.11,61.629 z m 138.23,6.242 -36.14,-6.867 c 11.23,-15.567 16.19,-36.708 16.82,-60.379 l 0,-13.696 c 0,-65.359 -39.83,-103.347 -118.91,-103.347 -11.2,0 -21.77,0.636 -31.11,1.867 -10.6,-8.711 -21.81,-19.289 -21.81,-32.356 0,-11.828 6.25,-16.179 19.94,-17.441 31.75,-3.125 47.91,-4.988 85.9,-8.711 54.79,-5.613 75.96,-26.766 75.96,-72.8437 C 5263.35,21.7969 5240.31,0 5130.75,0 c -28.03,0 -75.96,4.98047 -110.19,14.3242 l 7.47,41.086 c 31.75,-7.4805 70.97,-12.461 101.46,-12.461 77.22,0 84.67,10.5977 84.67,42.3438 0,25.527 -9.35,29.883 -44.81,32.988 -33.62,3.117 -44.84,4.356 -80.32,7.473 -44.81,3.75 -59.14,27.391 -59.14,55.406 0,22.414 12.44,41.098 28.64,53.528 -28.64,16.191 -42.33,46.074 -42.33,85.925 l 0,13.696 c 0,65.996 31.75,103.953 118.27,103.953 15.57,0 36.74,-1.864 51.07,-6.219 l 87.16,0 0,-30.488"
         style="fill:#231f20;fill-opacity:1;fill-rule:nonzero;stroke:none"
         id="path3463"
         inkscape:connector-curvature="0" /><path
         d="m 5343.06,128.879 0,303.164 52.29,0 0,-303.164 -52.29,0 z m 0,351.73 0,75.329 52.29,0 0,-75.329 -52.29,0"
         style="fill:#231f20;fill-opacity:1;fill-rule:nonzero;stroke:none"
         id="path3465"
         inkscape:connector-curvature="0" /><path
         d="m 5678,128.879 0,231.57 c 0,19.934 -9.94,28.02 -29.26,28.02 -22.42,0 -69.1,-13.703 -101.48,-30.489 l 0,-229.101 -52.29,0 0,303.164 42.32,0 4.99,-26.137 c 33.63,16.196 85.92,32.356 122.03,32.356 48.56,0 65.98,-30.489 65.98,-77.188 l 0,-232.195 -52.29,0"
         style="fill:#231f20;fill-opacity:1;fill-rule:nonzero;stroke:none"
         id="path3467"
         inkscape:connector-curvature="0" /><path
         d="m 5863.54,303.801 130.11,0 0,24.898 c 0,42.348 -14.32,65.989 -63.49,65.989 -49.19,0 -66.62,-23.641 -66.62,-65.989 l 0,-24.898 z m 72.23,-136.328 c 29.86,0 62.87,5.586 95.85,14.324 l 6.88,-41.719 c -28.66,-10.574 -69.13,-17.441 -107.1,-17.441 -89.63,0 -120.15,42.968 -120.15,111.445 l 0,90.891 c 0,62.89 28.63,113.289 118.91,113.289 89.65,0 113.92,-51.66 113.92,-114.524 l 0,-63.523 -180.54,0 0,-25.527 c 0,-47.911 13.07,-67.215 72.23,-67.215"
         style="fill:#231f20;fill-opacity:1;fill-rule:nonzero;stroke:none"
         id="path3469"
         inkscape:connector-curvature="0" /></g></g></svg>