<?xml version="1.0" encoding="UTF-8" standalone="no"?>
<!-- Created with Inkscape (http://www.inkscape.org/) -->

<svg
   xmlns:dc="http://purl.org/dc/elements/1.1/"
   xmlns:cc="http://creativecommons.org/ns#"
   xmlns:rdf="http://www.w3.org/1999/02/22-rdf-syntax-ns#"
   xmlns:svg="http://www.w3.org/2000/svg"
   xmlns="http://www.w3.org/2000/svg"
   xmlns:sodipodi="http://sodipodi.sourceforge.net/DTD/sodipodi-0.dtd"
   xmlns:inkscape="http://www.inkscape.org/namespaces/inkscape"
   width="88.672882mm"
   height="63.498093mm"
   viewBox="0 0 314.19525 224.99324"
   id="svg2"
   version="1.1"
   inkscape:version="0.91 r13725"
   sodipodi:docname="gis-cloud.svg">
  <sodipodi:namedview
     id="base"
     pagecolor="#ffffff"
     bordercolor="#666666"
     borderopacity="1.0"
     inkscape:pageopacity="0.0"
     inkscape:pageshadow="2"
     inkscape:zoom="1.4"
     inkscape:cx="228.72571"
     inkscape:cy="55.409238"
     inkscape:document-units="px"
     inkscape:current-layer="layer1"
     showgrid="false"
     inkscape:window-width="1920"
     inkscape:window-height="1176"
     inkscape:window-x="0"
     inkscape:window-y="24"
     inkscape:window-maximized="1"
     fit-margin-top="0"
     fit-margin-left="0"
     fit-margin-right="0"
     fit-margin-bottom="0" />
  <defs
     id="defs4" />
  <metadata
     id="metadata7">
    <rdf:RDF>
      <cc:Work
         rdf:about="">
        <dc:format>image/svg+xml</dc:format>
        <dc:type
           rdf:resource="http://purl.org/dc/dcmitype/StillImage" />
        <dc:title></dc:title>
      </cc:Work>
    </rdf:RDF>
  </metadata>
  <g
     id="layer1"
     inkscape:groupmode="layer"
     inkscape:label="Layer 1"
     transform="translate(-194.49858,-335.50713)">
    <path
       inkscape:connector-curvature="0"
       id="path3388"
       d="m 237.00153,560.43596 c -0.34108,-0.039 -1.37762,-0.1575 -2.3034,-0.26349 -19.78075,-2.26506 -34.31544,-15.86689 -38.88066,-36.38523 -0.92302,-4.14854 -1.19025,-6.63742 -1.28983,-12.01301 -0.0979,-5.28394 0.0331,-7.47922 0.67728,-11.35145 1.78093,-10.70546 6.33947,-19.86703 13.44341,-27.018 10.59963,-10.66976 25.02802,-15.03393 41.81931,-12.64905 12.04949,1.71137 21.61414,6.44175 25.6458,12.68361 3.22541,4.9936 3.15497,10.96279 -0.16868,14.2925 -2.79483,2.79994 -7.39804,3.55356 -11.42029,1.86967 -0.70021,-0.29313 -2.97338,-1.65755 -5.05148,-3.03202 -7.18749,-4.75385 -10.53348,-5.92368 -16.9787,-5.93609 -3.53567,-0.007 -4.88064,0.18685 -7.56435,1.0891 -6.97828,2.34611 -12.40063,8.23182 -15.10982,16.40096 -3.81797,11.51258 -1.78746,25.73871 4.85741,34.03211 4.25267,5.30769 10.03912,7.96982 17.2852,7.95224 4.29067,-0.0105 7.70286,-0.89539 11.05097,-2.8661 1.8723,-1.10206 4.85842,-4.05317 6.02741,-5.95675 1.4868,-2.42108 2.69941,-5.84193 3.03515,-8.56234 l 0.12645,-1.02455 -7.15214,-0.003 c -8.10442,-0.003 -8.7192,-0.0722 -11.0716,-1.2382 -2.39618,-1.18761 -4.07406,-3.29252 -4.75722,-5.96797 -0.31819,-1.24611 -0.35943,-4.28265 -0.0768,-5.65562 0.25828,-1.2547 1.22247,-3.26099 2.01041,-4.18328 0.9111,-1.06643 2.56439,-2.11384 4.23461,-2.68274 l 1.44537,-0.49232 14.08615,-0.052 c 15.75735,-0.0581 15.76175,-0.0577 18.2502,1.15644 2.54181,1.24023 4.23903,3.50681 5.17662,6.91321 0.36008,1.3082 0.39204,1.81392 0.38842,6.14729 -0.003,3.99139 -0.0652,5.11857 -0.40021,7.28643 -1.59063,10.29435 -5.76547,18.98996 -12.24549,25.50561 -6.38876,6.42389 -13.87145,10.12798 -23.57243,11.66884 -1.77068,0.28124 -9.9128,0.51822 -11.51706,0.33519 z m 105.60255,-0.0872 c -2.63264,-0.26026 -6.95434,-1.02581 -9.47942,-1.67919 -9.65639,-2.49865 -15.68689,-6.67984 -17.01174,-11.79488 -0.70531,-2.7231 0.0634,-6.84811 1.75391,-9.41153 1.3873,-2.10367 3.6717,-3.72489 5.90576,-4.19127 0.591,-0.12339 1.79921,-0.17959 2.88149,-0.13404 1.98477,0.0837 2.30632,0.17825 9.81998,2.89299 4.74042,1.71276 8.61819,2.45627 12.86307,2.46634 2.23649,0.006 3.03988,-0.0656 4.32728,-0.38202 4.14798,-1.01945 6.59075,-3.40201 7.19763,-7.02019 0.49641,-2.95962 -0.53027,-5.56227 -2.91042,-7.37794 -2.23149,-1.70228 -5.28056,-2.91621 -15.34754,-6.11035 -2.48503,-0.78848 -5.58682,-1.83386 -6.89289,-2.32313 -10.21009,-3.82462 -15.51654,-9.02718 -17.46618,-17.12427 -1.20349,-4.99826 -0.99013,-11.74144 0.53781,-16.99756 3.13236,-10.77526 12.44188,-18.27612 25.32734,-20.40672 5.77411,-0.95475 13.03312,-0.8068 19.04744,0.38825 8.0267,1.59486 13.39912,5.0894 15.2588,9.92518 0.5356,1.39276 0.67468,4.79835 0.26324,6.44636 -0.48247,1.93253 -1.3738,3.53409 -2.65575,4.77203 -2.09453,2.02258 -4.68828,2.87594 -7.9937,2.63001 -2.07828,-0.15465 -3.28144,-0.43988 -6.82163,-1.6172 -3.82904,-1.27341 -5.49217,-1.65322 -8.21112,-1.87525 -4.50811,-0.36811 -7.6254,0.45757 -9.8754,2.61579 -1.40314,1.3459 -1.99418,2.68432 -2.08058,4.71149 -0.0818,1.92096 0.3166,2.98075 1.56069,4.15102 1.63947,1.54215 3.79177,2.42799 13.46803,5.54316 7.61706,2.45222 9.91762,3.30246 13.02313,4.81297 4.41398,2.14699 8.20074,5.13854 10.58838,8.36485 2.19938,2.97189 3.84924,7.22863 4.46612,11.52279 0.35385,2.46328 0.3578,7.85828 0.008,10.52531 -0.90295,6.87874 -3.46663,12.40986 -7.79758,16.82332 -5.0841,5.18091 -11.93666,8.34288 -20.82198,9.60788 -2.41961,0.34452 -10.39923,0.49616 -12.93187,0.2458 z m -42.67401,-1.23629 c -4.34306,-0.60403 -7.22302,-3.12763 -8.57085,-7.51028 l -0.40159,-1.30583 -0.053,-38.93279 c -0.0375,-27.60863 0.004,-39.3733 0.1423,-40.44733 0.80303,-6.22951 5.08488,-9.72575 11.50505,-9.39417 5.84915,0.30209 9.44357,3.71984 10.11489,9.61772 0.12791,1.12377 0.17064,13.93632 0.13445,40.31286 l -0.0531,38.66554 -0.39432,1.39231 c -1.07741,3.80424 -3.63109,6.41471 -7.16057,7.31983 -1.32528,0.33984 -3.86827,0.47615 -5.26337,0.28214 z m 96.08942,-30.96306 c -0.006,-4.85416 -0.22655,-6.91744 -1.13505,-10.64896 -1.67308,-6.87214 -4.9178,-12.59844 -9.79617,-17.28844 -1.70814,-1.64218 -4.27361,-3.67151 -5.93968,-4.69841 -0.51162,-0.31533 -0.93023,-0.59931 -0.93023,-0.63105 0,-0.0318 0.59002,-0.38334 1.31112,-0.78133 5.55028,-3.0633 9.28412,-8.24118 10.67995,-14.81042 0.24215,-1.13961 0.32118,-2.28651 0.31926,-4.63273 -0.002,-2.78711 -0.053,-3.31895 -0.47718,-5.00907 -2.85462,-11.37202 -13.16732,-18.6577 -29.37451,-20.75237 -2.98575,-0.38588 -11.00523,-0.54025 -13.94454,-0.26841 -9.46487,0.87536 -18.17469,4.03458 -24.65765,8.94387 -0.89174,0.67527 -1.69083,1.22777 -1.77576,1.22777 -0.085,0 -0.49131,-0.43912 -0.90305,-0.97581 -2.95408,-3.85057 -7.8878,-6.73191 -13.19318,-7.70493 -2.19144,-0.40191 -6.54356,-0.39578 -8.77411,0.0124 -4.70768,0.86144 -8.89681,3.10038 -12.02501,6.42697 -1.20652,1.28305 -2.90268,3.66274 -3.41219,4.78728 -0.12041,0.26576 -0.29462,0.4832 -0.38713,0.4832 -0.0925,0 -0.59061,-0.38823 -1.10689,-0.86274 -6.61638,-6.081 -17.75,-10.52583 -30.20705,-12.05941 -3.21569,-0.39587 -10.94244,-0.54826 -14.00628,-0.27625 -6.17995,0.5487 -12.57139,2.1472 -17.96123,4.49209 -0.86913,0.37812 -1.60656,0.66101 -1.63875,0.62863 -0.0714,-0.0718 0.52864,-3.50562 1.0171,-5.82053 3.29027,-15.59289 10.34201,-30.26663 20.38754,-42.42374 14.80476,-17.91677 35.37784,-29.7181 57.91208,-33.22013 5.06318,-0.78686 8.54371,-1.03687 14.35543,-1.03117 8.30908,0.008 15.38356,0.8787 22.851,2.81198 0.92253,0.23885 1.68669,0.41821 1.69812,0.39859 0.0114,-0.0197 0.36289,-0.71719 0.78101,-1.55019 3.75409,-7.47909 9.66425,-15.00158 16.25907,-20.69469 15.15351,-13.08155 34.93435,-18.86416 54.7111,-15.99391 19.1918,2.78534 36.20798,13.50362 47.0918,29.66253 6.19858,9.20287 9.80003,18.80535 11.32278,30.18974 0.54233,4.05457 0.5777,12.32025 0.0694,16.21457 -0.18548,1.42101 -0.34397,2.72841 -0.35219,2.90536 -0.0124,0.26802 0.4287,0.43608 2.64284,1.0068 1.46178,0.3768 3.69433,1.05875 4.9612,1.51545 2.79793,1.00863 8.01024,3.56687 10.54253,5.1744 12.77099,8.10711 21.71401,21.11257 24.6886,35.90353 1.4196,7.05882 1.42723,15.03677 0.0212,22.07925 -1.25696,6.29553 -3.75311,12.69777 -7.02608,18.02076 -8.98376,14.61069 -23.7988,24.14174 -40.54059,26.08118 -9.17709,1.06312 -18.17297,-0.0907 -26.57781,-3.40896 -3.51875,-1.3892 -8.44457,-4.00727 -11.0302,-5.86252 -0.46314,-0.33228 -0.90871,-0.60418 -0.99016,-0.60418 -0.0814,0 -0.65282,0.66151 -1.26967,1.47001 -1.71659,2.24988 -5.81764,6.25736 -8.3266,8.13661 -4.00627,3.00077 -8.45754,5.38332 -12.93454,6.92328 -1.1207,0.38547 -2.23698,0.74935 -2.4806,0.8086 l -0.44297,0.10772 -0.006,-4.4022 z"
       style="fill:#0097c6;fill-opacity:1" />
    <path
       inkscape:connector-curvature="0"
       id="path3365"
       d=""
       style="fill:#000000" />
  </g>
</svg>
