<?xml version="1.0" encoding="UTF-8" standalone="no"?>
<!-- Created with Inkscape (http://www.inkscape.org/) -->

<svg
   xmlns:dc="http://purl.org/dc/elements/1.1/"
   xmlns:cc="http://creativecommons.org/ns#"
   xmlns:rdf="http://www.w3.org/1999/02/22-rdf-syntax-ns#"
   xmlns:svg="http://www.w3.org/2000/svg"
   xmlns="http://www.w3.org/2000/svg"
   xmlns:sodipodi="http://sodipodi.sourceforge.net/DTD/sodipodi-0.dtd"
   xmlns:inkscape="http://www.inkscape.org/namespaces/inkscape"
   id="svg2"
   version="1.1"
   inkscape:version="0.91 r13725"
   xml:space="preserve"
   width="593.75"
   height="150"
   viewBox="0 0 593.75 150"
   sodipodi:docname="Intercom_logo.svg"><metadata
     id="metadata8"><rdf:RDF><cc:Work
         rdf:about=""><dc:format>image/svg+xml</dc:format><dc:type
           rdf:resource="http://purl.org/dc/dcmitype/StillImage" /><dc:title></dc:title></cc:Work></rdf:RDF></metadata><defs
     id="defs6" /><sodipodi:namedview
     pagecolor="#ffffff"
     bordercolor="#666666"
     borderopacity="1"
     objecttolerance="10"
     gridtolerance="10"
     guidetolerance="10"
     inkscape:pageopacity="0"
     inkscape:pageshadow="2"
     inkscape:window-width="666"
     inkscape:window-height="480"
     id="namedview4"
     showgrid="false"
     inkscape:zoom="0.672"
     inkscape:cx="296.875"
     inkscape:cy="75"
     inkscape:window-x="0"
     inkscape:window-y="24"
     inkscape:window-maximized="0"
     inkscape:current-layer="g10" /><g
     id="g10"
     inkscape:groupmode="layer"
     inkscape:label="ink_ext_XXXXXX"
     transform="matrix(1.25,0,0,-1.25,0,150)"><g
       id="g12"
       transform="scale(0.1,0.1)"><path
         d="m 1591.13,426.77 0,346.472 c 0,21.684 17.57,39.262 39.26,39.262 l 0,0 c 21.68,0 39.26,-17.578 39.26,-39.262 l 0,-346.472 c 0,-21.684 -17.58,-39.262 -39.26,-39.262 l 0,0 c -21.68,0 -39.26,17.578 -39.26,39.262"
         style="fill:#1f8ded;fill-opacity:1;fill-rule:nonzero;stroke:none"
         id="path14"
         inkscape:connector-curvature="0" /><path
         d="m 2033.84,411.484 -168.91,267.946 0,-253.86 c 0,-21.023 -17.04,-38.062 -38.07,-38.062 l 0,0 c -21.02,0 -38.06,17.043 -38.06,38.062 l 0,335.559 c 0,28.371 23,51.375 51.37,51.375 l 2.42,0 c 17.64,0 34.04,-9.043 43.45,-23.953 l 166.51,-263.774 -0.01,249.661 c 0,21.023 17.05,38.066 38.07,38.066 l 0,0 c 21.02,0 38.06,-17.043 38.06,-38.066 l 0,-335.555 c 0,-28.375 -23,-51.375 -51.37,-51.375 l 0,0 c -17.65,0 -34.05,9.051 -43.46,23.976"
         style="fill:#1f8ded;fill-opacity:1;fill-rule:nonzero;stroke:none"
         id="path16"
         inkscape:connector-curvature="0" /><path
         d="m 2400.23,740.57 0.01,-317.097 c 0,-19.864 -16.11,-35.965 -35.97,-35.965 l -5.4,0 c -19.86,0 -35.96,16.101 -35.96,35.965 l 0,317.097 -89.92,0 c -19.86,0 -35.96,16.102 -35.96,35.965 l 0,0 c 0,19.863 16.1,35.969 35.96,35.969 l 257.16,-0.004 c 19.86,0 35.97,-16.102 35.97,-35.965 l 0,0 c 0,-19.863 -16.1,-35.965 -35.97,-35.965 l -89.92,0"
         style="fill:#1f8ded;fill-opacity:1;fill-rule:nonzero;stroke:none"
         id="path18"
         inkscape:connector-curvature="0" /><path
         d="m 2588.32,422.273 0,355.461 c 0,19.204 15.56,34.766 34.77,34.766 l 233.17,0 c 19.2,0 34.77,-15.566 34.77,-34.766 l 0,-0.597 c 0,-19.203 -15.57,-34.766 -34.77,-34.766 l -190.62,0 0,-98.91 163.65,0 c 19.2,0 34.77,-15.566 34.77,-34.766 l 0,0 c 0,-19.203 -15.57,-34.769 -34.77,-34.769 l -163.65,0 0,-116.285 190.62,0 c 19.21,0 34.77,-15.567 34.77,-34.77 l 0,-0.598 c 0,-19.203 -15.56,-34.769 -34.77,-34.769 l -233.17,0.004 c -19.2,0 -34.77,15.562 -34.77,34.765"
         style="fill:#1f8ded;fill-opacity:1;fill-rule:nonzero;stroke:none"
         id="path20"
         inkscape:connector-curvature="0" /><path
         d="m 3163.61,744.766 -101.9,0 0,-127.078 103.1,0 c 43.76,0 68.94,22.777 68.94,62.941 0,34.168 -26.38,64.137 -70.14,64.137 z m 53.5,-334.45 -60.69,137.836 -94.11,0 0,-122.441 c 0,-21.102 -17.11,-38.207 -38.21,-38.207 l -1.51,0 c -21.1,0 -38.2,17.105 -38.2,38.207 l -0.01,348.586 c 0,21.098 17.11,38.203 38.21,38.203 l 141.02,0 c 101.31,0 147.46,-63.539 147.46,-131.871 0,-56.949 -31.17,-101.906 -77.92,-119.289 l 53.79,-120 c 11.33,-25.277 -7.16,-53.836 -34.86,-53.836 l 0,0 c -15.15,0 -28.87,8.949 -34.97,22.812"
         style="fill:#1f8ded;fill-opacity:1;fill-rule:nonzero;stroke:none"
         id="path22"
         inkscape:connector-curvature="0" /><path
         d="m 3678.22,430.063 c -31.77,-32.368 -76.13,-50.352 -121.69,-50.352 -45.55,0 -88.11,14.984 -120.48,47.355 -46.16,46.157 -52.75,103.106 -52.75,172.637 0,69.535 6.59,126.481 52.75,172.637 32.37,32.367 74.93,47.953 120.48,47.953 45.56,0 89.92,-16.781 121.69,-49.152 11.08,-11.352 19.73,-24.411 26.21,-38.407 11.65,-25.168 -7.18,-53.906 -34.91,-53.906 l -0.19,0 c -15.59,0 -29.25,9.617 -35.44,23.922 -3.24,7.496 -7.68,14.266 -13.22,21.035 -13.78,17.383 -37.76,26.371 -64.14,26.371 -24.58,0 -48.55,-10.187 -65.33,-28.168 -29.37,-30.57 -29.37,-83.32 -29.37,-122.285 0,-38.965 0,-91.711 29.37,-122.281 16.78,-17.988 40.76,-28.176 65.33,-28.176 26.38,0 50.36,9.59 64.15,26.973 5.57,6.812 10.03,14.109 13.28,22.129 5.96,14.703 19.85,24.629 35.71,24.629 l 0,0 c 27.67,0 46.43,-28.594 34.97,-53.786 -6.5,-14.304 -15.22,-27.648 -26.42,-39.128"
         style="fill:#1f8ded;fill-opacity:1;fill-rule:nonzero;stroke:none"
         id="path24"
         inkscape:connector-curvature="0" /><path
         d="m 4038.38,721.984 c -16.79,17.985 -42.56,28.172 -67.13,28.172 -24.58,0 -50.36,-10.187 -67.15,-28.168 -29.37,-30.57 -30.57,-83.32 -30.57,-122.285 0,-38.965 1.2,-91.113 30.58,-121.687 16.78,-17.981 42.56,-28.172 67.14,-28.172 24.57,0 50.35,10.191 67.13,28.172 29.37,30.57 30.57,82.722 30.57,121.687 0,38.965 -1.2,91.715 -30.57,122.281 z m 55.15,-294.316 c -32.37,-32.371 -76.73,-47.957 -122.28,-47.957 -45.56,0 -89.92,15.586 -122.29,47.957 -46.15,46.156 -53.95,102.5 -53.95,172.035 0,69.535 7.79,126.481 53.95,172.637 32.37,32.367 76.73,47.953 122.28,47.953 45.56,0 89.92,-15.586 122.29,-47.953 46.16,-46.156 53.95,-103.102 53.95,-172.637 0,-69.535 -7.79,-125.879 -53.95,-172.035"
         style="fill:#1f8ded;fill-opacity:1;fill-rule:nonzero;stroke:none"
         id="path26"
         inkscape:connector-curvature="0" /><path
         d="m 4595.38,424.969 0,265.847 -100.43,-270.703 c -5.93,-16 -21.19,-26.617 -38.26,-26.617 l 0,0 c -17.15,0 -32.47,10.723 -38.34,26.832 l -99.91,274.082 0,-269.441 c 0,-20.692 -16.77,-37.465 -37.46,-37.465 l 0,0 c -20.69,0 -37.47,16.773 -37.47,37.465 l 0,329.215 c 0,32.207 26.11,58.316 58.32,58.316 l 5.31,0 c 24.44,0 46.28,-15.234 54.72,-38.16 l 97.44,-264.555 98,264.649 c 8.48,22.879 30.29,38.066 54.69,38.066 l 0,0 c 32.21,0 58.32,-26.109 58.32,-58.316 l 0,-329.215 c 0,-20.692 -16.78,-37.465 -37.47,-37.465 l 0,0 c -20.69,0 -37.46,16.773 -37.46,37.465"
         style="fill:#1f8ded;fill-opacity:1;fill-rule:nonzero;stroke:none"
         id="path28"
         inkscape:connector-curvature="0" /><path
         d="m 1040,540.242 c 0,-22.09 -17.91,-40 -40,-40 -22.086,0 -39.996,17.91 -39.996,40 l 0,359.758 c 0,22.09 17.91,40 39.996,40 22.09,0 40,-17.91 40,-40 l 0,-359.758 z m -13.96,-250.371 c -6.17,-5.293 -154.356,-129.633 -426.036,-129.633 -271.684,0 -419.856,124.344 -426.039,129.637 -16.766,14.375 -18.711,39.629 -4.336,56.406 14.348,16.739 39.531,18.719 56.309,4.414 2.355,-1.965 134.667,-110.449 374.066,-110.453 242.402,0 372.676,109.27 373.965,110.371 16.738,14.375 42.031,12.442 56.401,-4.336 14.38,-16.773 12.45,-42.031 -4.33,-56.406 z M 160,900 c 0,22.09 17.91,40 40,40 22.09,0 40,-17.91 40,-40 l 0,-359.758 c 0,-22.086 -17.91,-40 -40,-39.996 -22.09,0 -40,17.91 -40,40 L 160,900 Z m 200,80 c 0,22.09 17.91,40 40,40 22.09,0 40,-17.91 40,-40 l 0,-534.379 c 0,-22.09 -17.91,-40 -40,-40 -22.09,0 -40,17.91 -40,40 L 360,980 Z m 200,20.24 c 0,22.1 17.91,40 40.004,40 22.086,0 40,-17.9 40,-40 l 0,-579.998 c 0,-22.09 -17.91,-40 -40,-40 -22.094,0 -40,17.91 -40,40 L 560,1000.24 Z M 760.004,980 c 0,22.09 17.906,40 40,40 22.09,0 40,-17.91 40,-40 l 0,-534.379 c 0,-22.09 -17.91,-40 -40,-40 -22.094,0 -40,17.91 -40,40 l 0,534.379 z M 1050,1200 150,1200 C 67.1563,1200 0,1132.84 0,1050 L 0,150 C 0,67.1602 67.1563,0 150,0 l 900,0 c 82.85,0 150,67.1602 150,150 l 0,900 c 0,82.84 -67.15,150 -150,150"
         style="fill:#1f8ded;fill-opacity:1;fill-rule:nonzero;stroke:none"
         id="path30"
         inkscape:connector-curvature="0" /></g></g></svg>