<?xml version="1.0" encoding="UTF-8" standalone="no"?>
<!-- Generator: Adobe Illustrator 19.1.0, SVG Export Plug-In . SVG Version: 6.00 Build 0)  -->

<svg
   xmlns:dc="http://purl.org/dc/elements/1.1/"
   xmlns:cc="http://creativecommons.org/ns#"
   xmlns:rdf="http://www.w3.org/1999/02/22-rdf-syntax-ns#"
   xmlns:svg="http://www.w3.org/2000/svg"
   xmlns="http://www.w3.org/2000/svg"
   xmlns:sodipodi="http://sodipodi.sourceforge.net/DTD/sodipodi-0.dtd"
   xmlns:inkscape="http://www.inkscape.org/namespaces/inkscape"
   version="1.1"
   id="Layer_1"
   x="0px"
   y="0px"
   viewBox="0 0 136.7 106.16366"
   xml:space="preserve"
   inkscape:version="0.91 r13725"
   sodipodi:docname="Masinerija_Logo.svg"
   width="136.7"
   height="106.16366"><metadata
     id="metadata65"><rdf:RDF><cc:Work
         rdf:about=""><dc:format>image/svg+xml</dc:format><dc:type
           rdf:resource="http://purl.org/dc/dcmitype/StillImage" /><dc:title></dc:title></cc:Work></rdf:RDF></metadata><defs
     id="defs63" /><sodipodi:namedview
     pagecolor="#ffffff"
     bordercolor="#666666"
     borderopacity="1"
     objecttolerance="10"
     gridtolerance="10"
     guidetolerance="10"
     inkscape:pageopacity="0"
     inkscape:pageshadow="2"
     inkscape:window-width="1867"
     inkscape:window-height="1176"
     id="namedview61"
     showgrid="false"
     fit-margin-top="0"
     fit-margin-left="0"
     fit-margin-right="0"
     fit-margin-bottom="0"
     inkscape:zoom="1.5577558"
     inkscape:cx="68.05"
     inkscape:cy="52.71366"
     inkscape:window-x="1973"
     inkscape:window-y="24"
     inkscape:window-maximized="1"
     inkscape:current-layer="Layer_1" /><style
     type="text/css"
     id="style3">
	.st0{fill:#F26522;}
	.st1{fill:#8DC63F;}
	.st2{fill:#27AAE1;}
	.st3{fill:#939598;}
</style><g
     id="g5"
     transform="translate(-7.7,-22.3)"><g
       id="g7"><path
         class="st0"
         d="m 105.2,91.9 0,-26.6 -11,0 0,0 -36.3,0 0,0 -11.1,0 0,26.6 -4.2,0 0,8 3.5,0 0,-4.5 4.9,0 0,4.5 3.5,0 0,-8 -4.2,0 0,-23.1 7.6,0 0,23.2 7.1,0 0,4.5 -7.1,0 0,3.5 36.2,0 0,-3.5 -7,0 0,-4.5 7.1,0 0,-23.2 7.6,0 0,23.2 -4.2,0 0,8 3.5,0 0,-4.5 4.9,0 0,4.5 3.5,0 0,-8 -4.3,0 z m -21.5,4.5 -15.3,0 0,-4.5 15.2,0 0,4.5 z m 7,-8 -29.3,0 0,-19.6 29.3,0 0,19.6 z"
         id="path9"
         inkscape:connector-curvature="0"
         style="fill:#f26522" /><path
         class="st0"
         d="m 105.2,35.6 -27.4,0 0,-3.6 c 1.9,-0.7 3.3,-2.6 3.3,-4.7 0,-2.8 -2.3,-5 -5,-5 -2.8,0 -5,2.3 -5,5 0,2.2 1.4,4 3.3,4.7 l 0,3.6 -27.6,0 0,26.2 58.4,0 0,-26.2 z M 76,25.8 c 0.9,0 1.6,0.7 1.6,1.6 0,0.9 -0.7,1.6 -1.6,1.6 -0.9,0 -1.6,-0.7 -1.6,-1.6 0.1,-0.9 0.8,-1.6 1.6,-1.6 z m 25.8,32.5 -51.5,0 0,-9.1 3.8,3.4 5.5,-5 5.5,5 5.5,-5 5.5,5 5.5,-5 5.5,5 5.5,-5 5.5,5 3.8,-3.4 0,9.1 z m 0,-11.9 -3.8,3.4 -5.5,-5 -5.5,5 -5.5,-5 -5.5,5 -5.5,-5 -5.5,5 -5.5,-5 -5.5,5 -3.8,-3.4 0,-7.3 51.5,0 0,7.3 z"
         id="path11"
         inkscape:connector-curvature="0"
         style="fill:#f26522" /></g><g
       id="g13"><path
         class="st1"
         d="m 141.2,82.8 0,-20 -8.3,0 -0.3,0 -23.6,0 0,2.6 21.3,0 0,14.8 -21.3,0 0,2.6 2,0 0,3.4 -2,0 0,2.6 23.9,0 0,-2.6 -5.2,0 0,-3.4 5.3,0 0,-17.4 5.7,0 0,17.4 -3.1,0 0,6 2.6,0 0,-3.4 3.6,0 0,3.4 2.6,0 0,-6 -3.2,0 z m -16.2,3.4 -11.4,0 0,-3.4 11.4,0 0,3.4 z"
         id="path15"
         inkscape:connector-curvature="0"
         style="fill:#8dc63f" /><path
         class="st1"
         d="m 138.6,43.2 0,6.3 c -0.1,0.2 -0.2,0.4 -0.3,0.6 -0.5,1.1 -0.9,1.8 -1.5,1.8 -0.6,0 -1,-0.7 -1.5,-1.8 -0.6,-1.2 -1.3,-2.6 -2.9,-2.6 -1.6,0 -2.3,1.5 -2.9,2.6 -0.5,1.1 -0.9,1.8 -1.5,1.8 -0.6,0 -1,-0.7 -1.5,-1.8 -0.6,-1.2 -1.3,-2.6 -2.9,-2.6 -1.6,0 -2.3,1.5 -2.9,2.6 -0.5,1.1 -0.9,1.8 -1.5,1.8 -0.6,0 -1,-0.7 -1.5,-1.8 -0.6,-1.2 -1.3,-2.6 -2.9,-2.6 -1.6,0 -2.3,1.5 -2.9,2.6 -0.5,1.1 -0.9,1.8 -1.5,1.8 -0.6,0 -1,-0.7 -1.5,-1.8 0,0 0,-0.1 0,-0.1 l 0,2.8 c 0.4,0.4 0.9,0.6 1.5,0.6 1.6,0 2.3,-1.5 2.9,-2.6 0.5,-1.1 0.9,-1.8 1.5,-1.8 0.6,0 1,0.7 1.5,1.8 0.6,1.2 1.3,2.6 2.9,2.6 1.6,0 2.3,-1.5 2.9,-2.6 0.5,-1.1 0.9,-1.8 1.5,-1.8 0.6,0 1,0.7 1.5,1.8 0.6,1.2 1.3,2.6 2.9,2.6 1.6,0 2.3,-1.5 2.9,-2.6 0.5,-1.1 0.9,-1.8 1.5,-1.8 0.6,0 1,0.7 1.5,1.8 0.6,1.2 1.3,2.6 2.9,2.6 0.8,0 1.3,-0.3 1.8,-0.8 l 0,5.1 -29.6,0 0,2.6 32.2,0 0,-11.3 0,-1.6 0,-6.8 -20.6,0 0,-2.7 c 1.4,-0.5 2.5,-1.9 2.5,-3.5 0,-2.1 -1.7,-3.8 -3.8,-3.8 -2.1,0 -3.8,1.7 -3.8,3.8 0,1.6 1,3 2.5,3.5 l 0,2.7 -9,0 0,2.6 29.6,0 z m -19.3,-10 c 0.6,0 1.2,0.5 1.2,1.2 0,0.6 -0.5,1.2 -1.2,1.2 -0.6,0 -1.2,-0.5 -1.2,-1.2 0,-0.7 0.5,-1.2 1.2,-1.2 z"
         id="path17"
         inkscape:connector-curvature="0"
         style="fill:#8dc63f" /></g><g
       id="g19"><path
         class="st2"
         d="m 36.8,48.8 2.6,0 0,2.6 -2.6,0 0,-2.6 z m -5.1,0 2.6,0 0,2.6 -2.6,0 0,-2.6 z m -5.2,0 2.6,0 0,2.6 -2.6,0 0,-2.6 z m -5.2,0 2.6,0 0,2.6 -2.6,0 0,-2.6 z m -5.2,0 2.6,0 0,2.6 -2.6,0 0,-2.6 z"
         id="path21"
         inkscape:connector-curvature="0"
         style="fill:#27aae1" /><path
         class="st2"
         d="m 21.9,80.1 0,-14.8 21.2,0 0,-2.6 -23.8,0 0,0 -8.4,0 0,20.1 -3.2,0 0,6 2.6,0 0,-3.4 3.7,0 0,3.4 2.6,0 0,-6 -3.1,0 0,-17.5 5.8,0 0,17.5 5.3,0 0,3.4 -5.3,0 0,2.6 23.9,0 0,-2.6 -1.8,0 0,-3.4 1.8,0 0,-2.6 -21.3,0 z m 16.8,6.1 -11.5,0 0,-3.4 11.5,0 0,3.4 z"
         id="path23"
         inkscape:connector-curvature="0"
         style="fill:#27aae1" /><path
         class="st2"
         d="m 13.5,57.4 0,-14.6 29.6,0 0,-2.6 -8.9,0 0,-2.7 c 1.4,-0.5 2.5,-1.9 2.5,-3.6 0,-2.1 -1.7,-3.8 -3.8,-3.8 -2.1,0 -3.8,1.7 -3.8,3.8 0,1.6 1,3 2.5,3.6 l 0,2.7 -20.7,0 0,19.8 32.2,0 0,-2.6 -29.6,0 z M 33,32.8 c 0.6,0 1.2,0.5 1.2,1.2 0,0.6 -0.5,1.2 -1.2,1.2 -0.6,0 -1.2,-0.5 -1.2,-1.2 0,-0.7 0.5,-1.2 1.2,-1.2 z"
         id="path25"
         inkscape:connector-curvature="0"
         style="fill:#27aae1" /><rect
         x="16.1"
         y="48.799999"
         class="st2"
         width="2.5999999"
         height="2.5999999"
         id="rect27"
         style="fill:#27aae1" /><rect
         x="21.299999"
         y="48.799999"
         class="st2"
         width="2.5999999"
         height="2.5999999"
         id="rect29"
         style="fill:#27aae1" /><rect
         x="26.5"
         y="48.799999"
         class="st2"
         width="2.5999999"
         height="2.5999999"
         id="rect31"
         style="fill:#27aae1" /><rect
         x="31.700001"
         y="48.799999"
         class="st2"
         width="2.5999999"
         height="2.5999999"
         id="rect33"
         style="fill:#27aae1" /><rect
         x="36.799999"
         y="48.799999"
         class="st2"
         width="2.5999999"
         height="2.5999999"
         id="rect35"
         style="fill:#27aae1" /><rect
         x="42"
         y="48.799999"
         class="st2"
         width="1.1"
         height="2.5999999"
         id="rect37"
         style="fill:#27aae1" /></g><g
       id="g39"><path
         class="st3"
         d="m 25,127.5 0,-11.3 c 0,-0.5 0.3,-0.8 0.7,-0.9 0.5,-0.1 0.9,0.1 1.1,0.5 0.3,0.6 0.5,1.1 0.8,1.7 0.4,1 1,2.2 1.5,3.1 0.5,-1 1,-2.1 1.5,-3.1 0.3,-0.6 0.5,-1.1 0.8,-1.7 0.2,-0.4 0.6,-0.6 1.1,-0.5 0.5,0.1 0.7,0.5 0.7,0.9 l 0,11.3 c 0,0.5 -0.4,0.9 -0.9,0.9 -0.5,0 -0.9,-0.4 -0.9,-0.9 l 0,-7.1 c -0.3,0.7 -0.7,1.4 -0.9,1.9 -0.1,0.3 -0.3,0.6 -0.4,0.9 -0.2,0.3 -0.5,0.5 -0.8,0.5 -0.4,0 -0.7,-0.2 -0.9,-0.5 -0.1,-0.3 -0.3,-0.6 -0.4,-0.9 -0.3,-0.5 -0.6,-1.2 -0.9,-1.9 l 0,7.1 c 0,0.5 -0.4,0.9 -0.9,0.9 -0.8,0.1 -1.2,-0.3 -1.2,-0.9 z"
         id="path41"
         inkscape:connector-curvature="0"
         style="fill:#939598" /><path
         class="st3"
         d="m 44.8,128.4 c -0.5,0.1 -1,-0.2 -1.2,-0.6 -0.1,-0.2 -0.1,-0.4 -0.2,-0.6 -0.1,-0.4 -0.3,-0.9 -0.4,-1.5 l -3.3,0 c -0.2,0.6 -0.3,1.1 -0.4,1.5 -0.1,0.2 -0.1,0.4 -0.2,0.6 -0.1,0.5 -0.6,0.8 -1.2,0.6 -0.5,-0.1 -0.8,-0.6 -0.6,-1.2 l 3.1,-11.3 c 0.1,-0.4 0.5,-0.7 0.9,-0.7 0.4,0 0.8,0.3 0.9,0.7 l 3.1,11.3 c 0.3,0.6 0,1.1 -0.5,1.2 z m -3.3,-8.7 c -0.4,1.3 -0.8,2.8 -1.1,4.1 l 2.3,0 c -0.5,-1.3 -0.9,-2.8 -1.2,-4.1 z"
         id="path43"
         inkscape:connector-curvature="0"
         style="fill:#939598" /><path
         class="st3"
         d="m 55.8,125.3 c -0.1,1 -0.5,1.8 -1.3,2.4 -0.8,0.6 -1.8,0.8 -2.7,0.6 -1,-0.2 -1.8,-0.8 -2.3,-1.6 -0.3,-0.4 -0.1,-1 0.4,-1.3 0.5,-0.3 1,-0.1 1.3,0.4 0.2,0.4 0.6,0.6 1,0.7 0.4,0.1 0.9,0 1.2,-0.3 0.4,-0.3 0.6,-0.6 0.6,-1.1 0,-0.5 -0.1,-0.9 -0.4,-1.2 l -3.1,-3.2 c -0.6,-0.7 -1,-1.6 -0.9,-2.5 0.1,-0.9 0.5,-1.8 1.3,-2.4 0.8,-0.6 1.7,-0.8 2.6,-0.6 0.9,0.2 1.7,0.7 2.2,1.6 0.3,0.4 0.1,1 -0.3,1.3 -0.4,0.3 -1,0.1 -1.3,-0.4 -0.2,-0.4 -0.5,-0.6 -0.9,-0.7 -0.4,-0.1 -0.8,0 -1.1,0.3 -0.3,0.2 -0.5,0.6 -0.6,1 0,0.4 0.1,0.8 0.4,1.1 l 3.1,3.2 c 0.5,0.8 0.9,1.8 0.8,2.7 z M 51.9,112 c 0.2,0.2 0.5,0.4 0.8,0.6 0.3,-0.2 0.5,-0.4 0.8,-0.6 0.1,-0.1 0.3,-0.2 0.4,-0.3 0.4,-0.3 0.9,-0.2 1.2,0.1 0.3,0.4 0.2,0.9 -0.1,1.2 l -1.8,1.4 c -0.2,0.1 -0.3,0.2 -0.5,0.2 -0.2,0 -0.4,-0.1 -0.5,-0.2 L 50.4,113 c -0.4,-0.3 -0.4,-0.8 -0.1,-1.2 0.3,-0.4 0.8,-0.4 1.2,-0.1 0.1,0 0.3,0.1 0.4,0.3 z"
         id="path45"
         inkscape:connector-curvature="0"
         style="fill:#939598" /><path
         class="st3"
         d="m 60.5,127.5 0,-11.3 c 0,-0.5 0.4,-0.9 0.9,-0.9 0.5,0 0.9,0.4 0.9,0.9 l 0,11.3 c 0,0.5 -0.4,0.9 -0.9,0.9 -0.5,0 -0.9,-0.3 -0.9,-0.9 z"
         id="path47"
         inkscape:connector-curvature="0"
         style="fill:#939598" /><path
         class="st3"
         d="m 73.1,127.9 c -0.4,-0.8 -0.8,-1.7 -1.2,-2.6 -0.7,-1.5 -1.7,-3.4 -2.5,-5.1 l 0,7.2 c 0,0.5 -0.4,0.9 -0.9,0.9 -0.5,0 -0.9,-0.4 -0.9,-0.9 l 0,-11.3 c 0,-0.5 0.3,-0.8 0.7,-0.9 0.4,-0.1 0.8,0.1 1.1,0.5 0.4,0.8 0.8,1.7 1.2,2.6 0.7,1.5 1.6,3.4 2.5,5.1 l 0,-7.2 c 0,-0.5 0.4,-0.9 0.9,-0.9 0.5,0 0.9,0.4 0.9,0.9 l 0,11.3 c 0,0.4 -0.3,0.8 -0.7,0.9 -0.5,0.2 -0.9,-0.1 -1.1,-0.5 z"
         id="path49"
         inkscape:connector-curvature="0"
         style="fill:#939598" /><path
         class="st3"
         d="m 81,115.3 3.9,0 c 0.5,0 0.9,0.4 0.9,0.9 0,0.5 -0.4,0.9 -0.9,0.9 l -3,0 0,3.5 2.6,0 c 0.5,0 0.9,0.4 0.9,0.9 0,0.5 -0.4,0.9 -0.9,0.9 l -2.5,0 0,3.9 3,0 c 0.5,0 0.9,0.4 0.9,0.9 0,0.5 -0.4,0.9 -0.9,0.9 l -4,0 c -0.5,0 -0.9,-0.4 -0.9,-0.9 l 0,-11.2 c 0,-0.3 0.4,-0.7 0.9,-0.7 z"
         id="path51"
         inkscape:connector-curvature="0"
         style="fill:#939598" /><path
         class="st3"
         d="m 95.2,122.6 1.7,4.6 c 0.2,0.5 -0.1,1 -0.5,1.2 -0.5,0.2 -1,-0.1 -1.2,-0.5 l -1.8,-4.9 -1.1,0 0,4.5 c 0,0.5 -0.4,0.9 -0.9,0.9 -0.5,0 -0.9,-0.4 -0.9,-0.9 l 0,-11.3 c 0,-0.5 0.4,-0.9 0.9,-0.9 l 2.3,0 c 1.8,0 3.3,1.5 3.3,3.3 l 0,1.1 c 0,1.3 -0.7,2.4 -1.8,2.9 z m -1.5,-1.5 c 0.8,0 1.4,-0.6 1.4,-1.4 l 0,-1.1 c 0,-0.8 -0.6,-1.4 -1.4,-1.4 l -1.4,0 0,3.9 1.4,0 z"
         id="path53"
         inkscape:connector-curvature="0"
         style="fill:#939598" /><path
         class="st3"
         d="m 101.7,127.5 0,-11.3 c 0,-0.5 0.4,-0.9 0.9,-0.9 0.5,0 0.9,0.4 0.9,0.9 l 0,11.3 c 0,0.5 -0.4,0.9 -0.9,0.9 -0.5,0.1 -0.9,-0.3 -0.9,-0.9 z"
         id="path55"
         inkscape:connector-curvature="0"
         style="fill:#939598" /><path
         class="st3"
         d="m 111.6,128 c -0.5,0.3 -1.1,0.4 -1.7,0.4 -0.6,0 -1.1,-0.1 -1.6,-0.4 -0.5,-0.3 -0.6,-0.8 -0.4,-1.3 0.2,-0.5 0.8,-0.6 1.3,-0.4 0.2,0.1 0.5,0.2 0.7,0.2 0.2,0 0.5,-0.1 0.7,-0.2 0.5,-0.2 0.7,-0.7 0.7,-1.2 l 0,-9 c 0,-0.5 0.4,-0.9 0.9,-0.9 0.5,0 0.9,0.4 0.9,0.9 l 0,9 c 0.2,1.3 -0.5,2.3 -1.5,2.9 z"
         id="path57"
         inkscape:connector-curvature="0"
         style="fill:#939598" /><path
         class="st3"
         d="m 124.9,128.4 c -0.5,0.1 -1,-0.2 -1.2,-0.6 -0.1,-0.2 -0.1,-0.4 -0.2,-0.6 -0.1,-0.4 -0.3,-0.9 -0.4,-1.5 l -3.3,0 c -0.2,0.6 -0.3,1.1 -0.4,1.5 -0.1,0.2 -0.1,0.4 -0.2,0.6 -0.1,0.5 -0.6,0.8 -1.2,0.6 -0.5,-0.1 -0.8,-0.6 -0.6,-1.2 l 3.1,-11.3 c 0.1,-0.4 0.4,-0.7 0.9,-0.7 0.5,0 0.8,0.3 0.9,0.7 l 3.1,11.3 c 0.3,0.6 0,1.1 -0.5,1.2 z m -3.4,-8.7 c -0.4,1.3 -0.8,2.8 -1.1,4.1 l 2.3,0 c -0.4,-1.3 -0.8,-2.8 -1.2,-4.1 z"
         id="path59"
         inkscape:connector-curvature="0"
         style="fill:#939598" /></g></g></svg>