<?xml version="1.0" encoding="utf-8"?>
<!-- Generator: Adobe Illustrator 17.1.0, SVG Export Plug-In . SVG Version: 6.00 Build 0)  -->
<!DOCTYPE svg PUBLIC "-//W3C//DTD SVG 1.1//EN" "http://www.w3.org/Graphics/SVG/1.1/DTD/svg11.dtd">
<svg version="1.1" id="Layer_1" xmlns="http://www.w3.org/2000/svg" xmlns:xlink="http://www.w3.org/1999/xlink" x="0px" y="0px"
	 viewBox="0 0 312.287 195.066" enable-background="new 0 0 312.287 195.066" xml:space="preserve">
<g>
	<rect x="57.974" y="0" width="168.037" height="14.018"/>
	<polygon points="212.906,153.068 141.987,180.064 70.949,153 60.079,163.875 141.987,195.066 223.758,163.925 	"/>
	<g>
		<polygon points="24.312,55.351 36.169,85.437 38.156,85.437 38.156,55.351 59.383,55.351 59.383,125.089 35.072,125.089 
			23.218,95.102 21.222,95.102 21.222,125.089 0,125.089 0,55.351 		"/>
		<rect x="70.674" y="55.351" width="22.914" height="69.747"/>
		<polygon points="102.883,55.351 125.204,55.351 132.875,99.184 134.871,99.184 142.832,55.351 162.763,55.351 162.763,67.404 
			148.314,125.089 117.435,125.089 102.883,67.404 		"/>
		<path d="M177.471,55.351h32.586l14.051,57.688v12.05h-21.52l-2.598-14.642h-14.644l-2.786,14.642H163.43v-12.05L177.471,55.351z
			 M197.001,93.804l-3.085-17.827h-1.988l-3.394,17.827H197.001z"/>
		<path d="M253.331,102.085v5.171c0.696,1.501,2.397,2.297,4.981,2.297c2.291,0,3.983-0.796,4.981-2.297v-5.775
			c-0.499-1.101-1.999-1.893-4.387-2.398l-3.18-0.599c-15.951-2.886-22.125-8.56-24.41-12.944V67.302
			c2.384-4.579,10.258-13.54,26.995-13.54c16.636,0,24.604,9.057,26.998,13.54v10.663h-22.016v-4.782
			c-0.693-1.491-2.293-2.294-4.981-2.294c-2.69,0-4.285,1.099-4.981,2.294v4.884c0.493,1.093,1.701,1.899,4.381,2.394l3.087,0.593
			c16.145,3.181,22.118,8.569,24.511,13.05v19.026c-2.887,4.783-10.157,13.55-26.998,13.55c-16.737,0-24.309-8.767-26.995-13.55
			v-11.046H253.331z"/>
		<path d="M302.336,45.412c5.455,0,9.951,4.491,9.951,9.933c0,5.456-4.496,9.95-9.951,9.95c-5.444,0-9.936-4.494-9.936-9.95
			C292.4,49.903,296.892,45.412,302.336,45.412 M311.08,55.345c0-4.82-3.907-8.857-8.744-8.857c-4.812,0-8.73,4.037-8.73,8.857
			c0,4.835,3.918,8.871,8.73,8.871C307.173,64.217,311.08,60.181,311.08,55.345 M300.103,56.637v4.457h-1.466V49.241h4.663
			c1.375,0,2.835,0.827,3.499,2.162v3.028c-0.627,1.178-1.669,1.918-2.792,2.126l2.536,3.624v0.913h-1.167l-2.909-4.457H300.103z
			 M305.377,54.017v-2.203c-0.537-1.12-1.456-1.334-2.327-1.334h-2.946v4.866h2.946C303.921,55.345,304.84,55.139,305.377,54.017"/>
	</g>
</g>
</svg>
